# Blender v2.79 (sub 0) OBJ File: 'Wall.blend'
# www.blender.org
mtllib Wall.mtl
o Cube_Cube.001
v -45.639999 -82.559998 228.199997
v -45.639999 282.559998 228.199997
v -45.639999 -82.559998 -228.199997
v -45.639999 282.559998 -228.199997
v 45.639999 -82.559998 228.199997
v 45.639999 282.559998 228.199997
v 45.639999 -82.559998 -228.199997
v 45.639999 282.559998 -228.199997
vt 1.355528 1.381031
vt 1.355528 6.785940
vt 6.760441 6.785940
vt 6.760441 1.381031
vt 3.590654 0.559916
vt 3.590654 7.607055
vt 4.537608 7.607055
vt 4.537608 0.559916
vt 0.478826 0.559916
vt 0.478826 7.607055
vt -6.568320 7.607055
vt -6.568320 0.559916
vt -2.357682 0.559916
vt -2.357682 7.607055
vt -3.719521 7.607055
vt -3.719521 0.559916
vt 3.465239 0.481659
vt 4.663023 0.481659
vt 4.663023 -6.565483
vt 3.465239 -6.565483
vt -2.345691 -0.918839
vt -3.731512 -0.918839
vt -3.731512 -5.164984
vt -2.345691 -5.164984
vn -1.0000 0.0000 0.0000
vn 0.0000 0.0000 -1.0000
vn 1.0000 0.0000 0.0000
vn 0.0000 0.0000 1.0000
vn 0.0000 -1.0000 0.0000
vn 0.0000 1.0000 0.0000
usemtl None
s off
f 1/1/1 2/2/1 4/3/1 3/4/1
f 3/5/2 4/6/2 8/7/2 7/8/2
f 7/9/3 8/10/3 6/11/3 5/12/3
f 5/13/4 6/14/4 2/15/4 1/16/4
f 3/17/5 7/18/5 5/19/5 1/20/5
f 8/21/6 4/22/6 2/23/6 6/24/6
