# Blender v2.80 (sub 60) OBJ File: 'Map.blend'
# www.blender.org
mtllib Map.mtl
o Cube_Cube.001
v -22.000000 -0.025000 10.000000
v -22.000000 0.025000 10.000000
v -22.000000 -0.025000 -10.000000
v -22.000000 0.025000 -10.000000
v 22.000000 -0.025000 10.000000
v 22.000000 0.025000 10.000000
v 22.000000 -0.025000 -10.000000
v 22.000000 0.025000 -10.000000
vt -1.987021 0.999015
vt -1.987021 -0.000328
vt -0.991183 -0.000328
vt -0.991183 0.999015
vt 0.004655 -0.000328
vt 0.004655 0.999015
vt 1.000493 -0.000328
vt 1.000493 0.999015
vt 1.996331 -0.000328
vt 1.996331 0.999015
vt 0.004655 1.998358
vt 1.000493 1.998358
vt 0.004655 -0.999672
vt 1.000493 -0.999672
vn -1.0000 0.0000 0.0000
vn 0.0000 0.0000 -1.0000
vn 1.0000 0.0000 0.0000
vn 0.0000 0.0000 1.0000
vn 0.0000 -1.0000 0.0000
vn 0.0000 1.0000 0.0000
usemtl Material.001
s off
f 1/1/1 2/2/1 4/3/1 3/4/1
f 3/4/2 4/3/2 8/5/2 7/6/2
f 7/6/3 8/5/3 6/7/3 5/8/3
f 5/8/4 6/7/4 2/9/4 1/10/4
f 3/11/5 7/6/5 5/8/5 1/12/5
f 8/5/6 4/13/6 2/14/6 6/7/6
