# Blender v2.79 (sub 0) OBJ File: 'Goblin.blend'
# www.blender.org
mtllib Goblin_leg_left_bottom.mtl
o runescapemodel.008
v 0.408063 -0.112988 -0.606085
v 0.408280 0.018399 0.451786
v 0.257312 -1.654169 -1.066904
v -0.408605 -0.124871 -0.590738
v -0.408387 0.034411 0.467133
v 0.257312 -1.787159 -0.667933
v 0.463291 -1.454683 -0.135972
v 0.463291 -1.122207 -1.066904
v -0.051657 -1.720664 -1.133399
v -0.051657 -1.787159 -0.667933
v -0.257636 -1.454683 -0.135972
v 0.566281 -2.252625 -0.335457
v 0.566281 -1.853654 -1.532370
v -0.360626 -1.920149 -1.532370
v -0.257636 -1.188702 -1.133399
v -0.360626 -2.252625 -0.335457
v -0.000162 -2.053139 -1.465875
v -0.103152 -2.186130 -0.667933
v -0.000162 -2.319121 -0.468448
v 0.308807 -2.252625 -0.534943
v 0.411796 -2.186130 -0.667933
v 0.308807 -2.053139 -1.465875
v 0.566281 -2.585101 -1.000409
v -0.103152 -2.585101 -1.000409
v -0.103152 -2.851082 -0.268962
v 0.566281 -2.984072 -0.335457
v 0.617775 -3.516034 -0.933914
v -0.154646 -3.516034 -0.933914
v 0.617775 -3.516034 0.462485
v -0.000162 -3.516034 0.728465
v -0.103152 -2.784587 0.395990
v 0.566281 -2.917577 0.329494
v 0.566281 -3.250053 0.661970
v -0.103152 -3.250053 0.794961
vt 0.939576 0.447644
vt 0.826729 0.553956
vt 0.939576 0.553956
vt 0.709082 0.220622
vt 0.821929 0.003200
vt 0.821929 0.220622
vt 0.996800 0.001600
vt 0.942776 0.001600
vt 0.942776 0.107911
vt 0.702682 0.779378
vt 0.472188 0.885689
vt 0.472188 0.779378
vt 0.236894 0.223822
vt 0.236894 0.441244
vt 0.467388 0.223822
vt 0.944376 0.331733
vt 0.998400 0.331733
vt 0.998400 0.225422
vt 0.468988 0.776178
vt 0.238494 0.776178
vt 0.468988 0.669867
vt 0.119247 0.890489
vt 0.232094 0.890489
vt 0.119247 0.941244
vt 0.704282 0.776178
vt 0.704282 0.669867
vt 0.473788 0.776178
vt 0.939576 0.887289
vt 0.939576 0.780978
vt 0.826729 0.887289
vt 0.467388 0.446044
vt 0.236894 0.663467
vt 0.236894 0.446044
vt 0.472188 0.441244
vt 0.472188 0.223822
vt 0.702682 0.223822
vt 0.825129 0.001600
vt 0.937976 0.001600
vt 0.825129 0.107911
vt 0.707482 0.330133
vt 0.937976 0.223822
vt 0.707482 0.223822
vt 0.003200 0.442844
vt 0.233694 0.442844
vt 0.233694 0.225422
vt 0.939576 0.558756
vt 0.826729 0.665067
vt 0.939576 0.665067
vt 0.939576 0.776178
vt 0.939576 0.669867
vt 0.826729 0.776178
vt 0.944376 0.109511
vt 0.998400 0.003200
vt 0.998400 0.109511
vt 0.468988 0.665067
vt 0.468988 0.447644
vt 0.238494 0.665067
vt 0.820329 0.557156
vt 0.707482 0.557156
vt 0.707482 0.774578
vt 0.468988 0.220622
vt 0.238494 0.220622
vt 0.468988 0.003200
vt 0.233694 0.001600
vt 0.001600 0.001600
vt 0.001600 0.220622
vt 0.233694 0.220622
vt 0.702682 0.001600
vt 0.472188 0.001600
vt 0.472188 0.219022
vt 0.003200 0.887289
vt 0.233694 0.887289
vt 0.233694 0.669867
vt 0.826729 0.220622
vt 0.939576 0.220622
vt 0.939576 0.114311
vt 0.704282 0.665067
vt 0.704282 0.447644
vt 0.473788 0.665067
vt 0.939576 0.336533
vt 0.939576 0.442844
vt 0.826729 0.442844
vt 0.704282 0.003200
vt 0.473788 0.220622
vt 0.704282 0.220622
vt 0.233694 0.665067
vt 0.233694 0.447644
vt 0.003200 0.665067
vt 0.003200 0.998400
vt 0.116047 0.892089
vt 0.116047 0.998400
vt 0.238494 0.942844
vt 0.351341 0.942844
vt 0.351341 0.892089
vt 0.707482 0.219022
vt 0.707482 0.001600
vt 0.820329 0.001600
vt 0.820329 0.779378
vt 0.707482 0.885689
vt 0.707482 0.779378
vt 0.825129 0.668267
vt 0.825129 0.774578
vt 0.937976 0.668267
vt 0.821929 0.336533
vt 0.821929 0.553956
vt 0.709082 0.553956
vt 0.232094 0.668267
vt 0.001600 0.885689
vt 0.001600 0.668267
vt 0.939576 0.331733
vt 0.939576 0.225422
vt 0.709082 0.331733
vt 0.472188 0.774578
vt 0.702682 0.668267
vt 0.472188 0.668267
vt 0.468988 0.442844
vt 0.468988 0.225422
vt 0.238494 0.442844
vt 0.704282 0.780978
vt 0.704282 0.887289
vt 0.473788 0.887289
vt 0.998400 0.114311
vt 0.944376 0.220622
vt 0.998400 0.220622
vt 0.937976 0.112711
vt 0.825129 0.112711
vt 0.825129 0.219022
vt 0.236894 0.885689
vt 0.236894 0.779378
vt 0.467388 0.779378
vt 0.825129 0.334933
vt 0.825129 0.441244
vt 0.937976 0.334933
vt 0.473788 0.442844
vt 0.704282 0.442844
vt 0.704282 0.225422
vt 0.001600 0.663467
vt 0.232094 0.446044
vt 0.001600 0.446044
vt 0.825129 0.446044
vt 0.825129 0.552356
vt 0.937976 0.446044
vt 0.236894 0.001600
vt 0.236894 0.219022
vt 0.467388 0.001600
vt 0.233694 0.892089
vt 0.233694 0.942844
vt 0.120847 0.942844
vt 0.821929 0.776178
vt 0.821929 0.558756
vt 0.709082 0.776178
vt 0.001600 0.223822
vt 0.001600 0.441244
vt 0.232094 0.223822
vt 0.937976 0.557156
vt 0.825129 0.663467
vt 0.825129 0.557156
vt 0.942776 0.223822
vt 0.942776 0.330133
vt 0.996800 0.223822
vt 0.472188 0.663467
vt 0.472188 0.446044
vt 0.702682 0.446044
vt 0.821929 0.887289
vt 0.709082 0.887289
vt 0.821929 0.780978
vt 0.825129 0.885689
vt 0.825129 0.779378
vt 0.937976 0.779378
vt 0.707482 0.552356
vt 0.707482 0.334933
vt 0.820329 0.334933
vt 0.468988 0.887289
vt 0.468988 0.780978
vt 0.238494 0.887289
vt 0.467388 0.668267
vt 0.236894 0.774578
vt 0.236894 0.668267
vt 0.349741 0.890489
vt 0.236894 0.941244
vt 0.236894 0.890489
vt 0.996800 0.112711
vt 0.942776 0.219022
vt 0.942776 0.112711
vt 0.114447 0.890489
vt 0.001600 0.890489
vt 0.001600 0.996800
vt 0.939576 0.003200
vt 0.939576 0.109511
vt 0.826729 0.109511
vn -0.7524 0.4400 -0.4903
vn -0.9733 0.1045 0.2046
vn -0.7403 0.2682 0.6165
vn -0.5144 0.0323 -0.8569
vn 0.8313 0.0038 -0.5558
vn -0.7872 -0.1788 -0.5902
vn -0.4335 -0.6900 0.5797
vn -0.6959 0.0840 0.7132
vn -0.5827 0.7444 0.3261
vn 0.4276 0.6452 0.6332
vn 0.6290 0.4792 -0.6122
vn 0.3078 0.9514 -0.0082
vn 0.6063 -0.5762 -0.5481
vn -0.6136 -0.5819 -0.5338
vn -0.6279 0.7457 -0.2230
vn 0.6039 0.7597 -0.2410
vn -0.4352 0.6578 0.6148
vn 0.6411 0.1436 0.7539
vn -0.8208 0.4566 0.3432
vn 0.8872 0.4133 0.2049
vn 0.7357 0.5608 -0.3798
vn 0.8815 0.3351 0.3328
vn 0.5172 0.0880 -0.8513
vn 0.7079 -0.6497 0.2773
vn 0.6700 0.6983 0.2520
vn -0.7234 -0.0776 0.6860
vn 0.7097 -0.0833 0.6996
vn -0.3713 0.9254 -0.0753
vn 0.5558 0.2831 0.7816
vn -0.6678 0.2612 0.6970
vn -0.3138 0.3679 0.8753
vn 0.6324 0.5747 -0.5193
vn 0.6814 0.1974 -0.7048
vn -0.6873 0.5235 -0.5036
vn 0.5733 0.4385 0.6921
vn -0.5905 0.4292 0.6834
vn -0.6818 0.4407 -0.5839
vn 0.3794 0.3554 0.8542
vn 0.6349 0.3926 0.6654
vn 0.7318 -0.4032 0.5495
vn -0.6311 0.1367 -0.7636
vn -0.7148 -0.4653 0.5220
usemtl m589
s 1
f 9/1/1 18/2/2 10/3/3
usemtl m599
f 17/4/4 23/5/5 24/6/6
usemtl m623
f 30/7/7 34/8/8 31/9/9
usemtl m280
f 7/10/10 13/11/11 8/12/12
usemtl m608
f 27/13/13 28/14/14 23/15/5
usemtl m276
f 6/16/15 10/17/16 11/18/17
usemtl m277
f 6/19/15 11/20/17 7/21/10
usemtl m622
f 30/22/7 33/23/18 34/24/8
usemtl m617
f 25/25/19 31/26/9 26/27/20
usemtl m595
f 3/28/21 21/29/22 22/30/23
usemtl m612
f 27/31/13 30/32/7 28/33/14
usemtl m611
f 27/34/13 29/35/24 30/36/7
usemtl m601
f 18/37/2 24/38/6 25/39/19
usemtl m625
f 32/40/25 34/41/8 33/42/18
usemtl m330
f 11/43/17 16/44/26 12/45/27
usemtl m283
f 8/46/12 15/47/28 9/48/29
usemtl m268
f 3/49/30 8/50/12 9/51/29
usemtl m602
f 18/52/2 25/53/19 19/54/31
usemtl m257
f 1/55/32 3/56/33 4/57/34
usemtl m284
f 9/58/29 15/59/28 11/60/17
usemtl m256
f 1/61/32 2/62/35 3/63/33
f 2/64/35 1/65/32 4/66/34 5/67/36
usemtl m610
f 27/68/13 26/69/20 29/70/24
usemtl m281
f 8/71/12 13/72/11 14/73/37
usemtl m266
f 3/74/30 6/75/15 7/76/10
usemtl m278
f 7/77/10 11/78/17 12/79/27
usemtl m591
f 10/80/3 19/81/31 20/82/38
usemtl m282
f 8/83/12 14/84/37 15/85/28
usemtl m604
f 20/86/38 25/87/19 26/88/20
usemtl m606
f 21/89/22 26/90/20 23/91/5
usemtl m590
f 10/92/3 18/93/2 19/94/31
usemtl m616
f 30/95/7 31/96/9 25/97/19
usemtl m592
f 10/98/3 20/99/38 6/100/39
usemtl m603
f 19/101/31 25/102/19 20/103/38
usemtl m265
f 2/104/35 6/105/40 3/106/33
usemtl m613
f 28/107/14 30/108/7 25/109/19
usemtl m624
f 31/110/9 34/111/8 32/112/25
usemtl m618
f 26/113/20 31/114/9 32/115/25
usemtl m329
f 11/116/17 15/117/28 16/118/26
usemtl m269
f 3/119/33 9/120/41 4/121/34
usemtl m597
f 9/122/1 22/123/23 17/124/4
usemtl m598
f 17/125/4 22/126/23 23/127/5
usemtl m274
f 9/128/41 10/129/42 5/130/36
usemtl m596
f 3/131/21 22/132/23 9/133/1
usemtl m279
f 7/134/10 12/135/27 13/136/11
usemtl m609
f 27/137/13 23/138/5 26/139/20
usemtl m594
f 6/140/39 21/141/22 3/142/21
usemtl m270
f 4/143/34 9/144/41 5/145/36
usemtl m621
f 29/146/24 33/147/18 30/148/7
usemtl m267
f 3/149/30 7/150/10 8/151/12
usemtl m331
f 14/152/37 16/153/26 15/154/28
usemtl m285
f 9/155/29 11/156/17 10/157/16
usemtl m605
f 20/158/38 26/159/20 21/160/22
usemtl m615
f 28/161/14 24/162/6 23/163/5
usemtl m588
f 9/164/1 17/165/4 18/166/2
usemtl m619
f 26/167/20 32/168/25 29/169/24
usemtl m275
f 5/170/36 10/171/42 6/172/40
usemtl m264
f 2/173/35 5/174/36 6/175/40
usemtl m614
f 28/176/14 25/177/19 24/178/6
usemtl m593
f 6/179/39 20/180/38 21/181/22
usemtl m620
f 29/182/24 32/183/25 33/184/18
usemtl m607
f 21/185/22 23/186/5 22/187/23
usemtl m600
f 17/188/4 24/189/6 18/190/2
