# Blender v2.79 (sub 0) OBJ File: 'Goblin.blend'
# www.blender.org
mtllib Goblin_arm_left_top.mtl
o runescapemodel.001
v 0.954367 -0.721747 0.948094
v 1.220348 -0.721747 0.748609
v 1.220348 -0.389271 0.416133
v 0.954367 -0.322776 0.682114
v 0.422405 -0.655252 1.081085
v 1.087357 -0.721747 0.349638
v 1.419833 -0.655251 -0.049333
v 1.220348 0.076196 0.017162
v 0.954367 0.408671 0.083657
v 0.422405 0.674652 0.349638
v 0.422405 -0.123290 0.881599
v 0.023434 -0.721747 1.014590
v 0.222920 -0.721747 0.482628
v 1.153853 -1.253708 0.416133
v 1.153853 -1.187213 -0.381809
v 1.087357 -0.655251 -0.514800
v 1.220348 -0.655251 -0.847276
v 1.220348 -0.056795 -0.315314
v 0.954367 0.209186 -0.581295
v 0.422405 0.541662 -0.581295
v 0.023434 0.541662 -0.581295
v 0.023434 0.674652 0.349638
v 0.023434 -0.123290 0.881599
v 0.023434 -0.655251 -0.980266
v 0.222920 -0.721746 -0.647790
v 0.156425 -1.253708 0.682113
v 0.355910 -1.918660 0.416133
v 0.954367 -1.918660 0.216647
v 0.954367 -1.918660 -0.115829
v 0.156425 -1.253708 -0.647790
v 0.954367 -0.655251 -0.980266
v 0.422405 -0.655251 -1.046761
v 0.023434 0.475167 -0.248819
v 0.355910 -1.985155 -0.315314
vt 0.306092 0.310892
vt 0.306092 0.459938
vt 0.003200 0.459938
vt 0.309292 0.924677
vt 0.458338 0.924677
vt 0.309292 0.996800
vt 0.613785 0.306092
vt 0.464738 0.306092
vt 0.613785 0.003200
vt 0.001600 0.616985
vt 0.304492 0.616985
vt 0.001600 0.766031
vt 0.464738 0.921477
vt 0.613785 0.921477
vt 0.613785 0.772431
vt 0.304492 0.463138
vt 0.001600 0.463138
vt 0.001600 0.612185
vt 0.998400 0.157046
vt 0.926277 0.229169
vt 0.998400 0.229169
vt 0.770831 0.304492
vt 0.919877 0.155446
vt 0.770831 0.155446
vt 0.772431 0.459938
vt 0.921477 0.459938
vt 0.921477 0.310892
vt 0.693908 0.001600
vt 0.766031 0.001600
vt 0.693908 0.304492
vt 0.309292 0.309292
vt 0.309292 0.612185
vt 0.458338 0.309292
vt 0.772431 0.613785
vt 0.921477 0.464738
vt 0.921477 0.613785
vt 0.616985 0.766031
vt 0.616985 0.616985
vt 0.766031 0.616985
vt 0.612185 0.770831
vt 0.463138 0.919877
vt 0.463138 0.770831
vt 0.924677 0.001600
vt 0.924677 0.150646
vt 0.996800 0.001600
vt 0.616985 0.304492
vt 0.689108 0.001600
vt 0.616985 0.001600
vt 0.003200 0.613785
vt 0.306092 0.613785
vt 0.306092 0.464738
vt 0.003200 0.306092
vt 0.306092 0.306092
vt 0.306092 0.003200
vt 0.770831 0.001600
vt 0.919877 0.001600
vt 0.770831 0.150646
vt 0.309292 0.919877
vt 0.309292 0.847754
vt 0.458338 0.847754
vt 0.919877 0.309292
vt 0.770831 0.309292
vt 0.770831 0.458338
vt 0.001600 0.309292
vt 0.304492 0.309292
vt 0.001600 0.458338
vt 0.767631 0.613785
vt 0.767631 0.464738
vt 0.618585 0.613785
vt 0.767631 0.310892
vt 0.464738 0.459938
vt 0.767631 0.459938
vt 0.767631 0.767631
vt 0.618585 0.767631
vt 0.767631 0.618585
vt 0.690708 0.306092
vt 0.618585 0.306092
vt 0.690708 0.003200
vt 0.842954 0.616985
vt 0.770831 0.919877
vt 0.770831 0.616985
vt 0.459938 0.003200
vt 0.310892 0.306092
vt 0.459938 0.306092
vt 0.767631 0.306092
vt 0.767631 0.003200
vt 0.695508 0.306092
vt 0.459938 0.926277
vt 0.459938 0.998400
vt 0.310892 0.998400
vt 0.613785 0.613785
vt 0.464738 0.613785
vt 0.613785 0.464738
vt 0.001600 0.304492
vt 0.304492 0.001600
vt 0.001600 0.001600
vt 0.616985 0.612185
vt 0.766031 0.463138
vt 0.616985 0.463138
vt 0.612185 0.616985
vt 0.309292 0.766031
vt 0.309292 0.616985
vt 0.613785 0.618585
vt 0.613785 0.767631
vt 0.310892 0.767631
vt 0.459938 0.772431
vt 0.459938 0.844554
vt 0.157046 0.844554
vt 0.463138 0.612185
vt 0.612185 0.463138
vt 0.463138 0.463138
vt 0.921477 0.157046
vt 0.921477 0.306092
vt 0.772431 0.306092
vt 0.847754 0.919877
vt 0.919877 0.770831
vt 0.847754 0.770831
vt 0.767631 0.770831
vt 0.616985 0.770831
vt 0.616985 0.921477
vt 0.767631 0.921477
vt 0.844554 0.921477
vt 0.772431 0.921477
vt 0.844554 0.618585
vt 0.458338 0.770831
vt 0.155446 0.842954
vt 0.155446 0.770831
vt 0.924677 0.227569
vt 0.996800 0.155446
vt 0.924677 0.155446
vt 0.921477 0.772431
vt 0.921477 0.921477
vt 0.849354 0.921477
vt 0.152246 0.998400
vt 0.003200 0.998400
vt 0.152246 0.926277
vt 0.155446 0.847754
vt 0.304492 0.847754
vt 0.155446 0.996800
vt 0.464738 0.998400
vt 0.613785 0.926277
vt 0.613785 0.998400
vt 0.306092 0.618585
vt 0.306092 0.767631
vt 0.003200 0.767631
vt 0.463138 0.996800
vt 0.612185 0.924677
vt 0.463138 0.924677
vt 0.612185 0.001600
vt 0.463138 0.001600
vt 0.463138 0.304492
vt 0.463138 0.458338
vt 0.766031 0.309292
vt 0.463138 0.309292
vt 0.309292 0.001600
vt 0.309292 0.304492
vt 0.458338 0.001600
vt 0.150646 0.770831
vt 0.001600 0.919877
vt 0.001600 0.770831
vt 0.770831 0.612185
vt 0.919877 0.463138
vt 0.770831 0.463138
vt 0.921477 0.152246
vt 0.921477 0.003200
vt 0.772431 0.152246
vt 0.847754 0.766031
vt 0.847754 0.616985
vt 0.919877 0.616985
vt 0.998400 0.003200
vt 0.998400 0.152246
vt 0.926277 0.152246
vt 0.152246 0.772431
vt 0.152246 0.921477
vt 0.003200 0.921477
vt 0.310892 0.613785
vt 0.459938 0.310892
vt 0.459938 0.613785
vt 0.849354 0.767631
vt 0.921477 0.618585
vt 0.921477 0.767631
vt 0.001600 0.996800
vt 0.001600 0.924677
vt 0.150646 0.924677
vt 0.459938 0.849354
vt 0.459938 0.921477
vt 0.310892 0.921477
vn 0.2812 -0.4971 -0.8208
vn -0.0012 -0.4751 -0.8799
vn 0.1931 0.7863 -0.5869
vn -0.3565 -0.8467 -0.3950
vn 0.8076 -0.1961 -0.5561
vn 0.5906 -0.7255 -0.3533
vn -0.6161 -0.2107 -0.7589
vn 0.3405 -0.8859 -0.3151
vn 0.4754 -0.8223 0.3128
vn 0.7779 -0.0828 0.6230
vn -0.5861 -0.0389 0.8093
vn -0.3960 -0.7269 0.5611
vn 0.6572 -0.4822 -0.5793
vn 0.5736 -0.7188 0.3928
vn -0.3798 -0.7720 -0.5097
vn 0.5705 0.5911 -0.5703
vn -1.0000 0.0000 0.0000
vn -0.6284 -0.4414 -0.6406
vn -0.5686 0.7510 0.3358
vn 0.5657 0.4524 0.6894
vn 0.2094 0.4292 0.8786
vn 0.1199 -0.3909 0.9126
vn 0.8578 -0.5136 -0.0217
vn 0.8855 0.3867 -0.2578
vn 0.8663 0.4783 0.1437
vn 0.6504 0.7359 0.1881
vn -0.5417 0.6559 -0.5257
vn 0.2544 0.8779 0.4058
vn -0.5852 -0.5273 0.6161
vn -0.3240 -0.8806 0.3459
vn 0.8245 0.3672 0.4305
vn -0.6680 0.2921 0.6844
vn 0.7003 -0.4161 0.5800
vn 0.3528 -0.4866 0.7992
usemtl m451
s 1
f 31/1/1 32/2/2 20/3/3
usemtl m455
f 32/4/2 31/5/1 25/6/4
usemtl m444
f 15/7/5 29/8/6 30/9/7
usemtl m445
f 15/10/5 30/11/7 16/12/8
usemtl m419
f 6/13/9 14/14/10 15/15/5
usemtl m440
f 14/16/10 26/17/11 27/18/12
usemtl m448
f 16/19/8 31/20/1 17/21/13
usemtl m441
f 14/22/10 27/23/12 28/24/14
usemtl m459
f 29/25/6 34/26/15 30/27/7
usemtl m449
f 17/28/13 31/29/1 19/30/16
usemtl m457
f 33/31/17 24/32/18 22/33/19
usemtl m447
f 16/34/8 25/35/4 31/36/1
usemtl m414
f 4/37/20 11/38/21 5/39/22
usemtl m423
f 7/40/23 17/41/13 18/42/24
usemtl m426
f 8/43/25 19/44/16 9/45/26
usemtl m454
f 32/46/2 21/47/27 20/48/3
usemtl m412
f 4/49/20 9/50/26 10/51/28
usemtl m435
f 12/52/29 22/53/19 24/54/18
usemtl m442
f 14/55/10 28/56/14 15/57/5
usemtl m425
f 8/58/25 18/59/24 19/60/16
usemtl m462
f 34/61/15 27/62/12 26/63/11
usemtl m461
f 30/64/7 26/65/11 25/66/4
usemtl m418
f 6/67/9 13/68/30 14/69/10
usemtl m413
f 4/70/20 10/71/28 11/72/21
usemtl m409
f 3/73/31 7/74/23 8/75/25
usemtl m416
f 5/76/22 12/77/29 6/78/9
usemtl m432
f 11/79/21 22/80/19 23/81/32
usemtl m417
f 6/82/9 12/83/29 13/84/30
usemtl m411
f 3/85/31 9/86/26 4/87/20
usemtl m407
f 2/88/33 6/89/9 7/90/23
usemtl m405
f 1/91/34 5/92/22 6/93/9
usemtl m436
f 12/94/29 24/95/18 25/96/4
usemtl m446
f 16/97/8 30/98/7 25/99/4
usemtl m452
f 31/100/1 20/101/3 19/102/16
usemtl m434
f 12/103/29 23/104/32 22/105/19
usemtl m453
f 32/106/2 24/107/18 21/108/27
usemtl m420
f 6/109/9 15/110/5 16/111/8
usemtl m427
f 9/112/26 19/113/16 20/114/3
usemtl m443
f 15/115/5 28/116/14 29/117/6
f 29/118/6 28/119/14 27/120/12 34/121/15
usemtl m431
f 10/122/28 22/123/19 11/124/21
usemtl m458
f 24/125/18 33/126/17 21/127/27
usemtl m456
f 32/128/2 25/129/4 24/130/18
usemtl m429
f 10/131/28 20/132/3 21/133/27
usemtl m415
f 5/134/22 11/135/21 12/136/29
usemtl m404
f 1/137/34 4/138/20 5/139/22
usemtl m403
f 1/140/34 3/141/31 4/142/20
usemtl m439
f 13/143/30 26/144/11 14/145/10
usemtl m406
f 1/146/34 6/147/9 2/148/33
usemtl m460
f 30/149/7 34/150/15 26/151/11
usemtl m430
f 10/152/28 21/153/27 22/154/19
usemtl m438
f 13/155/30 25/156/4 26/157/11
usemtl m421
f 6/158/9 16/159/8 7/160/23
usemtl m450
f 17/161/13 19/162/16 18/163/24
usemtl m428
f 9/164/26 20/165/3 10/166/28
usemtl m422
f 7/167/23 16/168/8 17/169/13
usemtl m424
f 7/170/23 18/171/24 8/172/25
usemtl m410
f 3/173/31 8/174/25 9/175/26
usemtl m437
f 12/176/29 25/177/4 13/178/30
usemtl m408
f 2/179/33 7/180/23 3/181/31
usemtl m433
f 11/182/21 23/183/32 12/184/29
usemtl m402
f 1/185/34 2/186/33 3/187/31
