# Blender v2.79 (sub 0) OBJ File: 'Goblin.blend'
# www.blender.org
mtllib Goblin_arm_right_bottom.mtl
o runescapemodel.004
v 0.310606 -0.070545 -0.425170
v -0.287850 -0.004050 -0.225685
v -0.287850 -0.004050 0.106791
v -0.154860 -2.131896 0.239781
v -0.154860 -2.131896 -0.159190
v -0.354346 -2.730352 -0.092695
v -0.354346 -2.730352 0.239781
v -0.154860 -2.663857 0.572257
v 0.310606 -2.131896 0.239781
v 0.443597 -0.934982 0.439267
v -0.420841 -0.934982 0.306277
v -0.420841 -0.934982 -0.425170
v 0.310606 -2.131896 -0.159190
v 0.310606 -2.730352 -0.491666
v -0.154860 -2.730352 -0.491666
v -0.021870 -3.062828 -0.159190
v -0.021870 -3.062828 0.239781
v 0.310606 -2.663857 0.572257
v 0.510092 -2.730352 0.239781
v 0.443597 -1.001477 -0.558161
v 0.310606 -0.004050 0.306277
v 0.310606 -3.062828 -0.159190
v 0.310606 -3.062828 0.239781
v 0.510092 -2.730352 -0.092695
vt 0.573029 0.282514
vt 0.573029 0.001600
vt 0.711086 0.001600
vt 0.284114 0.860343
vt 0.284114 0.998400
vt 0.003200 0.998400
vt 0.001600 0.573029
vt 0.001600 0.853943
vt 0.282514 0.573029
vt 0.998400 0.574629
vt 0.998400 0.712686
vt 0.717486 0.712686
vt 0.569829 0.998400
vt 0.288914 0.998400
vt 0.569829 0.860343
vt 0.855543 0.284114
vt 0.855543 0.003200
vt 0.717486 0.284114
vt 0.282514 0.287314
vt 0.001600 0.287314
vt 0.001600 0.568229
vt 0.568229 0.858743
vt 0.287314 0.996800
vt 0.287314 0.858743
vt 0.858743 0.139657
vt 0.858743 0.001600
vt 0.996800 0.001600
vt 0.287314 0.711086
vt 0.287314 0.573029
vt 0.568229 0.573029
vt 0.288914 0.855543
vt 0.569829 0.717486
vt 0.569829 0.855543
vt 0.717486 0.569829
vt 0.855543 0.569829
vt 0.855543 0.288914
vt 0.284114 0.855543
vt 0.284114 0.574629
vt 0.003200 0.855543
vt 0.715886 0.568229
vt 0.853943 0.287314
vt 0.715886 0.287314
vt 0.853943 0.001600
vt 0.715886 0.001600
vt 0.715886 0.282514
vt 0.287314 0.568229
vt 0.568229 0.287314
vt 0.287314 0.287314
vt 0.001600 0.858743
vt 0.282514 0.858743
vt 0.001600 0.996800
vt 0.282514 0.001600
vt 0.001600 0.001600
vt 0.001600 0.282514
vt 0.569829 0.288914
vt 0.288914 0.569829
vt 0.569829 0.569829
vt 0.998400 0.284114
vt 0.998400 0.146057
vt 0.860343 0.284114
vt 0.858743 0.568229
vt 0.858743 0.430171
vt 0.996800 0.430171
vt 0.858743 0.144457
vt 0.858743 0.282514
vt 0.996800 0.144457
vt 0.284114 0.003200
vt 0.003200 0.284114
vt 0.284114 0.284114
vt 0.712686 0.003200
vt 0.574629 0.284114
vt 0.712686 0.284114
vt 0.855543 0.717486
vt 0.855543 0.855543
vt 0.717486 0.855543
vt 0.287314 0.282514
vt 0.568229 0.001600
vt 0.287314 0.001600
vt 0.712686 0.860343
vt 0.574629 0.998400
vt 0.712686 0.998400
vt 0.712686 0.288914
vt 0.574629 0.569829
vt 0.712686 0.569829
vt 0.711086 0.287314
vt 0.573029 0.287314
vt 0.573029 0.568229
vt 0.569829 0.003200
vt 0.569829 0.284114
vt 0.288914 0.284114
vt 0.998400 0.426971
vt 0.998400 0.288914
vt 0.860343 0.426971
vt 0.858743 0.425371
vt 0.996800 0.287314
vt 0.858743 0.287314
vt 0.569829 0.712686
vt 0.288914 0.712686
vt 0.569829 0.574629
vt 0.996800 0.715886
vt 0.858743 0.853943
vt 0.858743 0.715886
vt 0.284114 0.288914
vt 0.003200 0.569829
vt 0.284114 0.569829
vt 0.712686 0.855543
vt 0.712686 0.573029
vt 0.573029 0.573029
vt 0.573029 0.855543
vt 0.711086 0.858743
vt 0.573029 0.858743
vt 0.573029 0.996800
vt 0.998400 0.141257
vt 0.998400 0.003200
vt 0.860343 0.141257
vt 0.715886 0.573029
vt 0.996800 0.573029
vt 0.715886 0.711086
vt 0.998400 0.855543
vt 0.860343 0.855543
vt 0.998400 0.717486
vt 0.568229 0.715886
vt 0.287314 0.715886
vt 0.287314 0.853943
vt 0.998400 0.431771
vt 0.860343 0.569829
vt 0.998400 0.569829
vt 0.715886 0.715886
vt 0.715886 0.853943
vt 0.853943 0.715886
vn 0.7370 0.2031 0.6447
vn 0.4270 -0.0466 0.9031
vn 0.9595 -0.1157 0.2569
vn -0.7270 0.1785 0.6630
vn -0.7322 0.1213 -0.6703
vn -0.9570 -0.2140 -0.1956
vn -0.7429 -0.0331 -0.6686
vn -0.5721 0.6810 -0.4571
vn 0.6212 -0.0511 -0.7820
vn 0.6562 0.0203 0.7543
vn -0.7719 -0.0031 0.6358
vn -0.5988 0.7022 0.3851
vn 0.4586 0.5932 -0.6616
vn 0.4507 -0.1166 -0.8850
vn 0.9750 -0.0987 -0.1989
vn 0.4484 -0.8290 -0.3343
vn -0.4431 -0.0742 0.8934
vn -0.4729 -0.1514 -0.8680
vn 0.7448 0.1462 -0.6510
vn 0.4670 0.6653 0.5824
vn -0.3226 -0.8749 0.3612
vn 0.4323 -0.8253 0.3633
vn -0.9397 -0.2272 0.2556
vn -0.3318 -0.8861 -0.3237
usemtl m523
s 1
f 9/1/1 18/2/2 19/3/3
usemtl m505
f 4/4/4 5/5/5 6/6/6
usemtl m533
f 12/7/7 2/8/8 20/9/9
usemtl m509
f 4/10/4 9/11/1 10/12/10
usemtl m531
f 11/13/11 3/14/12 12/15/7
usemtl m511
f 4/16/4 11/17/11 5/18/5
usemtl m546
f 2/19/8 1/20/13 20/21/9
usemtl m532
f 12/22/7 3/23/12 2/24/8
usemtl m542
f 14/25/14 24/26/15 22/27/16
usemtl m522
f 8/28/17 18/29/2 9/30/1
usemtl m516
f 5/31/5 15/32/18 6/33/6
usemtl m514
f 5/34/5 13/35/19 14/36/14
usemtl m529
f 10/37/10 21/38/20 11/39/11
usemtl m515
f 5/40/5 14/41/14 15/42/18
usemtl m525
f 9/43/1 13/44/19 20/45/9
usemtl m526
f 9/46/1 20/47/9 10/48/10
usemtl m524
f 9/49/1 19/50/3 13/51/19
usemtl m534
f 12/52/7 20/53/9 13/54/19
usemtl m512
f 5/55/5 11/56/11 12/57/7
usemtl m521
f 8/58/17 17/59/21 18/60/2
usemtl m545
f 23/61/22 22/62/16 24/63/15
usemtl m543
f 14/64/14 22/65/16 15/66/18
usemtl m510
f 4/67/4 10/68/10 11/69/11
usemtl m507
f 4/70/4 7/71/23 8/72/17
usemtl m535
f 17/73/21 16/74/24 22/75/16
usemtl m528
f 10/76/10 1/77/13 21/78/20
usemtl m519
f 7/79/23 16/80/24 17/81/21
usemtl m506
f 4/82/4 6/83/6 7/84/23
usemtl m540
f 19/85/3 24/86/15 13/87/19
usemtl m527
f 10/88/10 20/89/9 1/90/13
usemtl m518
f 6/91/6 16/92/24 7/93/23
usemtl m544
f 15/94/18 22/95/16 16/96/24
usemtl m508
f 4/97/4 8/98/17 9/99/1
usemtl m536
f 17/100/21 22/101/16 23/102/22
usemtl m530
f 11/103/11 21/104/20 3/105/12
f 3/106/12 21/107/20 1/108/13 2/109/8
usemtl m537
f 17/110/21 23/111/22 18/112/2
usemtl m520
f 7/113/23 17/114/21 8/115/17
usemtl m513
f 5/116/5 12/117/7 13/118/19
usemtl m517
f 6/119/6 15/120/18 16/121/24
usemtl m541
f 13/122/19 24/123/15 14/124/14
usemtl m538
f 18/125/2 23/126/22 19/127/3
usemtl m539
f 19/128/3 23/129/22 24/130/15
