# Blender v2.79 (sub 0) OBJ File: 'Goblin.blend'
# www.blender.org
mtllib Goblin_leg_left_top.mtl
o runescapemodel.011
v 0.507118 -2.062483 -0.407009
v 0.507335 -1.931096 0.650862
v -0.309553 -2.074366 -0.391662
v -0.309336 -1.915084 0.666209
v 0.427692 -0.144415 -0.588340
v 0.423879 0.052572 0.459551
v -0.375936 -0.137164 -0.552409
v -0.379749 0.058418 0.495483
vt 0.665067 0.001600
vt 0.334933 0.001600
vt 0.334933 0.331733
vt 0.665067 0.331733
vt 0.998400 0.001600
vt 0.668267 0.001600
vt 0.668267 0.331733
vt 0.998400 0.331733
vt 0.331733 0.001600
vt 0.001600 0.001600
vt 0.001600 0.331733
vt 0.331733 0.331733
vt 0.331733 0.668267
vt 0.001600 0.668267
vt 0.001600 0.998400
vt 0.331733 0.998400
vt 0.665067 0.334933
vt 0.334933 0.334933
vt 0.334933 0.665067
vt 0.665067 0.665067
vt 0.331733 0.334933
vt 0.001600 0.334933
vt 0.001600 0.665067
vt 0.331733 0.665067
vn 0.5801 -0.6278 -0.5190
vn -0.5716 -0.6503 -0.5004
vn -0.6003 0.4877 -0.6338
vn 0.5620 0.4955 -0.6623
vn 0.6001 -0.4999 0.6244
vn 0.5674 0.6674 0.4824
vn -0.5756 0.6422 0.5062
vn -0.5607 -0.5117 0.6510
usemtl m257
s 1
f 1/1/1 3/2/2 7/3/3 5/4/4
usemtl m256
f 2/5/5 1/6/1 5/7/4 6/8/6
f 6/9/6 5/10/4 7/11/3 8/12/7
f 2/13/5 4/14/8 3/15/2 1/16/1
usemtl m270
f 3/17/2 4/18/8 8/19/7 7/20/3
usemtl m264
f 4/21/8 2/22/5 6/23/6 8/24/7
