# Blender v2.79 (sub 0) OBJ File: 'Goblin.blend'
# www.blender.org
mtllib Goblin_arm_left_bottom.mtl
o runescapemodel.003
v -0.274360 -0.032756 0.332430
v 0.324096 -0.032756 0.132945
v 0.324096 -0.032755 -0.199531
v -0.274360 -0.099251 -0.399017
v -0.407351 -1.030183 -0.532007
v -0.407351 -0.963688 0.465421
v 0.457087 -0.963688 0.332430
v 0.457087 -0.963688 -0.399017
v -0.274360 -2.160601 -0.133036
v -0.274360 -2.160601 0.265935
v 0.191106 -2.160601 0.265935
v 0.191106 -2.160601 -0.133036
v 0.191106 -2.759058 -0.465512
v -0.274360 -2.759058 -0.465512
v -0.473846 -2.759058 -0.066541
v -0.473846 -2.759058 0.265935
v -0.274360 -2.692563 0.598411
v 0.191106 -2.692563 0.598411
v 0.390591 -2.759058 0.265935
v 0.390591 -2.759058 -0.066541
v 0.058116 -3.091534 -0.133036
v -0.274360 -3.091534 -0.133036
v -0.274360 -3.091534 0.265935
v 0.058116 -3.091534 0.265935
vt 0.569829 0.860343
vt 0.431771 0.998400
vt 0.569829 0.998400
vt 0.426971 0.860343
vt 0.288914 0.998400
vt 0.426971 0.998400
vt 0.573029 0.282514
vt 0.573029 0.001600
vt 0.711086 0.001600
vt 0.998400 0.574629
vt 0.860343 0.712686
vt 0.998400 0.712686
vt 0.715886 0.282514
vt 0.715886 0.001600
vt 0.853943 0.001600
vt 0.569829 0.569829
vt 0.288914 0.569829
vt 0.569829 0.288914
vt 0.860343 0.569829
vt 0.998400 0.431771
vt 0.998400 0.569829
vt 0.282514 0.573029
vt 0.001600 0.853943
vt 0.001600 0.573029
vt 0.574629 0.426971
vt 0.855543 0.426971
vt 0.855543 0.288914
vt 0.284114 0.569829
vt 0.284114 0.288914
vt 0.003200 0.569829
vt 0.284114 0.998400
vt 0.003200 0.998400
vt 0.284114 0.860343
vt 0.568229 0.573029
vt 0.287314 0.711086
vt 0.287314 0.573029
vt 0.853943 0.715886
vt 0.573029 0.853943
vt 0.573029 0.715886
vt 0.858743 0.287314
vt 0.996800 0.287314
vt 0.858743 0.425371
vt 0.282514 0.858743
vt 0.001600 0.996800
vt 0.001600 0.858743
vt 0.711086 0.858743
vt 0.573029 0.996800
vt 0.573029 0.858743
vt 0.573029 0.711086
vt 0.573029 0.430171
vt 0.711086 0.430171
vt 0.001600 0.287314
vt 0.001600 0.568229
vt 0.282514 0.287314
vt 0.003200 0.855543
vt 0.284114 0.855543
vt 0.284114 0.574629
vt 0.282514 0.001600
vt 0.001600 0.282514
vt 0.001600 0.001600
vt 0.712686 0.860343
vt 0.712686 0.998400
vt 0.574629 0.998400
vt 0.568229 0.715886
vt 0.287314 0.715886
vt 0.287314 0.853943
vt 0.855543 0.003200
vt 0.717486 0.284114
vt 0.855543 0.284114
vt 0.717486 0.712686
vt 0.855543 0.712686
vt 0.855543 0.431771
vt 0.715886 0.711086
vt 0.853943 0.430171
vt 0.715886 0.430171
vt 0.430171 0.858743
vt 0.430171 0.996800
vt 0.568229 0.858743
vt 0.288914 0.712686
vt 0.569829 0.574629
vt 0.569829 0.712686
vt 0.858743 0.568229
vt 0.996800 0.430171
vt 0.858743 0.430171
vt 0.288914 0.855543
vt 0.569829 0.855543
vt 0.569829 0.717486
vt 0.858743 0.573029
vt 0.858743 0.711086
vt 0.996800 0.573029
vt 0.712686 0.003200
vt 0.712686 0.284114
vt 0.574629 0.284114
vt 0.858743 0.715886
vt 0.858743 0.853943
vt 0.996800 0.715886
vt 0.569829 0.003200
vt 0.288914 0.284114
vt 0.569829 0.284114
vt 0.287314 0.858743
vt 0.287314 0.996800
vt 0.425371 0.858743
vt 0.855543 0.855543
vt 0.574629 0.855543
vt 0.855543 0.717486
vt 0.003200 0.284114
vt 0.284114 0.003200
vt 0.284114 0.284114
vt 0.860343 0.426971
vt 0.998400 0.288914
vt 0.998400 0.426971
vt 0.287314 0.282514
vt 0.568229 0.001600
vt 0.287314 0.001600
vt 0.712686 0.712686
vt 0.712686 0.431771
vt 0.574629 0.712686
vt 0.568229 0.287314
vt 0.287314 0.568229
vt 0.287314 0.287314
vt 0.573029 0.425371
vt 0.853943 0.287314
vt 0.573029 0.287314
vt 0.998400 0.284114
vt 0.998400 0.001600
vt 0.858743 0.001600
vt 0.858743 0.284114
vt 0.860343 0.855543
vt 0.998400 0.855543
vt 0.998400 0.717486
vn -0.4507 -0.1166 -0.8850
vn 0.3318 -0.8861 -0.3237
vn -0.4484 -0.8290 -0.3343
vn -0.7448 0.1462 -0.6510
vn -0.9750 -0.0987 -0.1989
vn 0.7631 0.0179 0.6460
vn 0.7270 0.1785 0.6630
vn 0.7322 0.1213 -0.6703
vn 0.4431 -0.0742 0.8934
vn 0.9397 -0.2272 0.2556
vn -0.6297 -0.0725 -0.7734
vn 0.7527 -0.0541 -0.6562
vn 0.3226 -0.8749 0.3612
vn -0.4458 0.6480 0.6176
vn -0.6457 0.0429 0.7624
vn 0.5897 0.6902 0.4193
vn -0.7370 0.2031 0.6447
vn -0.4270 -0.0466 0.9031
vn -0.4323 -0.8253 0.3633
vn 0.9570 -0.2140 -0.1956
vn -0.9595 -0.1157 0.2569
vn 0.4729 -0.1514 -0.8680
vn 0.5796 0.6937 -0.4276
vn -0.4810 0.6134 -0.6264
usemtl m493
s 1
f 14/1/1 21/2/2 22/3/3
usemtl m481
f 9/4/4 14/5/1 15/6/5
usemtl m476
f 7/7/6 11/8/7 12/9/8
usemtl m494
f 14/10/1 22/11/3 15/12/5
usemtl m487
f 11/13/7 18/14/9 19/15/10
usemtl m471
f 5/16/11 8/17/12 9/18/4
usemtl m500
f 18/19/9 24/20/13 19/21/10
usemtl m464
f 1/22/14 5/23/11 6/24/15
usemtl m467
f 2/25/16 7/26/6 8/27/12
usemtl m465
f 1/28/14 6/29/15 2/30/16
usemtl m485
f 10/31/17 17/32/18 11/33/7
usemtl m499
f 18/34/9 23/35/19 24/36/13
usemtl m489
f 12/37/8 19/38/10 20/39/20
usemtl m497
f 16/40/21 23/41/19 17/42/18
usemtl m486
f 11/43/7 17/44/18 18/45/9
usemtl m504
f 21/46/2 23/47/19 22/48/3
usemtl m490
f 12/49/8 20/50/20 13/51/22
usemtl m469
f 3/52/23 8/53/12 4/54/24
usemtl m463
f 1/55/14 4/56/24 5/57/11
usemtl m477
f 7/58/6 12/59/8 8/60/12
usemtl m503
f 21/61/2 24/62/13 23/63/19
usemtl m478
f 8/64/12 12/65/8 9/66/4
usemtl m484
f 10/67/17 16/68/21 17/69/18
usemtl m479
f 9/70/4 12/71/8 13/72/22
usemtl m480
f 9/73/4 13/74/22 14/75/1
usemtl m501
f 19/76/10 24/77/13 20/78/20
usemtl m483
f 10/79/17 15/80/5 16/81/21
usemtl m502
f 20/82/20 24/83/13 21/84/2
usemtl m474
f 6/85/15 10/86/17 11/87/7
usemtl m495
f 15/88/5 22/89/3 16/90/21
usemtl m472
f 5/91/11 9/92/4 10/93/17
usemtl m492
f 13/94/22 21/95/2 14/96/1
usemtl m466
f 2/97/16 6/98/15 7/99/6
usemtl m498
f 17/100/18 23/101/19 18/102/9
usemtl m488
f 11/103/7 19/104/10 12/105/8
usemtl m475
f 6/106/15 11/107/7 7/108/6
usemtl m496
f 16/109/21 22/110/3 23/111/19
usemtl m470
f 4/112/24 8/113/12 5/114/11
usemtl m482
f 9/115/4 15/116/5 10/117/17
usemtl m473
f 5/118/11 10/119/17 6/120/15
usemtl m468
f 2/121/16 8/122/12 3/123/23
f 3/124/23 4/125/24 1/126/14 2/127/16
usemtl m491
f 13/128/22 20/129/20 21/130/2
