# Blender v2.79 (sub 0) OBJ File: 'Goblin.blend'
# www.blender.org
mtllib Goblin_arm_right_top.mtl
o runescapemodel.002
v -1.272743 -0.413652 0.406886
v -1.272743 -0.746128 0.739362
v -1.006762 -0.746128 0.938848
v -1.006762 -0.347157 0.672867
v -1.006762 0.384290 0.074410
v -1.272743 0.051814 0.007915
v -1.538723 -0.679633 -0.058580
v -1.206248 -0.746128 0.340391
v -0.541296 -0.679633 1.071838
v -0.541296 -0.147671 0.872353
v -0.541296 0.650271 0.340391
v -1.006762 0.184805 -0.590541
v -1.272743 -0.081176 -0.324561
v -1.272743 -0.679632 -0.856522
v -1.206248 -0.679632 -0.524046
v -1.272743 -1.278089 -0.590542
v -1.272743 -1.211594 0.539876
v -0.275315 -0.746128 0.473381
v -0.075829 -0.746128 1.005343
v -0.075829 -0.147671 0.872353
v -0.075829 0.650271 0.340391
v -0.541296 0.517281 -0.590541
v -0.541296 -0.679632 -1.056008
v -1.006762 -0.679632 -0.989513
v -0.075829 0.517281 -0.590541
v -0.075829 -0.679632 -0.989513
v -0.275315 -0.746128 -0.657037
v -0.208820 -1.278089 0.872352
v -0.208820 -1.278089 -0.590542
v -0.408305 -2.009536 -0.324561
v -1.006762 -1.943041 -0.125076
v -1.006762 -1.943041 0.207400
v -0.075829 0.450786 -0.258065
v -0.408305 -1.943041 0.406886
vt 0.001600 0.853943
vt 0.001600 0.715886
vt 0.282514 0.715886
vt 0.288914 0.284114
vt 0.426971 0.003200
vt 0.426971 0.284114
vt 0.858743 0.568229
vt 0.996800 0.430171
vt 0.858743 0.430171
vt 0.925371 0.858743
vt 0.858743 0.925371
vt 0.858743 0.858743
vt 0.568229 0.001600
vt 0.430171 0.282514
vt 0.430171 0.001600
vt 0.998400 0.574629
vt 0.998400 0.712686
vt 0.860343 0.712686
vt 0.998400 0.141257
vt 0.931771 0.141257
vt 0.998400 0.003200
vt 0.426971 0.931771
vt 0.288914 0.998400
vt 0.426971 0.998400
vt 0.287314 0.282514
vt 0.425371 0.001600
vt 0.287314 0.001600
vt 0.712686 0.569829
vt 0.574629 0.569829
vt 0.712686 0.288914
vt 0.287314 0.425371
vt 0.568229 0.287314
vt 0.287314 0.287314
vt 0.860343 0.284114
vt 0.926971 0.284114
vt 0.926971 0.003200
vt 0.569829 0.003200
vt 0.569829 0.284114
vt 0.431771 0.284114
vt 0.573029 0.282514
vt 0.711086 0.001600
vt 0.573029 0.001600
vt 0.715886 0.287314
vt 0.853943 0.287314
vt 0.715886 0.568229
vt 0.712686 0.003200
vt 0.574629 0.284114
vt 0.712686 0.284114
vt 0.001600 0.858743
vt 0.139657 0.858743
vt 0.001600 0.996800
vt 0.853943 0.858743
vt 0.715886 0.925371
vt 0.715886 0.858743
vt 0.001600 0.573029
vt 0.001600 0.711086
vt 0.282514 0.573029
vt 0.860343 0.569829
vt 0.998400 0.569829
vt 0.998400 0.431771
vt 0.569829 0.717486
vt 0.288914 0.855543
vt 0.569829 0.855543
vt 0.930171 0.139657
vt 0.996800 0.001600
vt 0.930171 0.001600
vt 0.715886 0.573029
vt 0.715886 0.711086
vt 0.853943 0.573029
vt 0.858743 0.711086
vt 0.996800 0.573029
vt 0.858743 0.573029
vt 0.574629 0.855543
vt 0.712686 0.717486
vt 0.712686 0.855543
vt 0.569829 0.574629
vt 0.288914 0.712686
vt 0.569829 0.712686
vt 0.282514 0.287314
vt 0.001600 0.568229
vt 0.001600 0.287314
vt 0.569829 0.998400
vt 0.569829 0.860343
vt 0.431771 0.998400
vt 0.925371 0.715886
vt 0.858743 0.715886
vt 0.858743 0.853943
vt 0.568229 0.715886
vt 0.287314 0.715886
vt 0.287314 0.853943
vt 0.425371 0.930171
vt 0.287314 0.930171
vt 0.287314 0.996800
vt 0.573029 0.568229
vt 0.573029 0.287314
vt 0.711086 0.287314
vt 0.711086 0.573029
vt 0.573029 0.573029
vt 0.573029 0.711086
vt 0.426971 0.926971
vt 0.426971 0.860343
vt 0.146057 0.926971
vt 0.284114 0.712686
vt 0.003200 0.712686
vt 0.284114 0.574629
vt 0.141257 0.998400
vt 0.141257 0.860343
vt 0.003200 0.998400
vt 0.715886 0.001600
vt 0.853943 0.001600
vt 0.715886 0.282514
vt 0.003200 0.855543
vt 0.284114 0.855543
vt 0.284114 0.717486
vt 0.715886 0.715886
vt 0.715886 0.853943
vt 0.853943 0.715886
vt 0.712686 0.712686
vt 0.712686 0.574629
vt 0.574629 0.712686
vt 0.425371 0.858743
vt 0.144457 0.925371
vt 0.144457 0.858743
vt 0.568229 0.858743
vt 0.430171 0.858743
vt 0.430171 0.996800
vt 0.858743 0.425371
vt 0.996800 0.287314
vt 0.858743 0.287314
vt 0.144457 0.996800
vt 0.282514 0.930171
vt 0.144457 0.930171
vt 0.568229 0.573029
vt 0.287314 0.711086
vt 0.287314 0.573029
vt 0.573029 0.715886
vt 0.573029 0.853943
vt 0.711086 0.715886
vt 0.003200 0.284114
vt 0.284114 0.003200
vt 0.284114 0.284114
vt 0.282514 0.001600
vt 0.001600 0.282514
vt 0.001600 0.001600
vt 0.855543 0.717486
vt 0.717486 0.855543
vt 0.855543 0.855543
vt 0.855543 0.569829
vt 0.717486 0.569829
vt 0.855543 0.288914
vt 0.855543 0.003200
vt 0.855543 0.284114
vt 0.717486 0.284114
vt 0.855543 0.860343
vt 0.717486 0.926971
vt 0.855543 0.926971
vt 0.146057 0.998400
vt 0.284114 0.998400
vt 0.284114 0.931771
vt 0.926971 0.926971
vt 0.926971 0.860343
vt 0.860343 0.926971
vt 0.569829 0.569829
vt 0.569829 0.431771
vt 0.288914 0.569829
vt 0.287314 0.568229
vt 0.287314 0.430171
vt 0.568229 0.430171
vt 0.288914 0.426971
vt 0.569829 0.288914
vt 0.569829 0.426971
vt 0.860343 0.855543
vt 0.926971 0.717486
vt 0.926971 0.855543
vt 0.998400 0.288914
vt 0.860343 0.426971
vt 0.998400 0.426971
vt 0.712686 0.858743
vt 0.573029 0.858743
vt 0.573029 0.998400
vt 0.712686 0.998400
vt 0.717486 0.712686
vt 0.855543 0.574629
vt 0.855543 0.712686
vt 0.925371 0.001600
vt 0.858743 0.282514
vt 0.858743 0.001600
vn -0.6994 -0.1788 -0.6920
vn -0.5622 -0.7919 -0.2383
vn -0.7552 -0.0274 0.6550
vn -0.3043 0.8649 0.3992
vn 0.6811 0.3138 0.6616
vn 0.5686 0.7510 0.3358
vn -0.1247 -0.4349 0.8918
vn -0.2508 0.4770 0.8424
vn -0.2751 -0.4858 -0.8297
vn -0.3634 -0.8698 -0.3337
vn -0.6435 -0.4826 -0.5941
vn 0.5921 -0.5433 0.5952
vn -0.5681 -0.7665 0.2996
vn -0.7926 0.3975 0.4625
vn -0.6046 0.4704 0.6428
vn -0.6399 0.7515 0.1606
vn -0.3925 -0.5404 0.7442
vn -0.5673 0.5901 -0.5745
vn -0.0199 -0.4599 -0.8877
vn -0.2400 0.7784 -0.5801
vn 0.6197 -0.4297 -0.6567
vn 1.0000 -0.0000 0.0000
vn 0.5356 0.6483 -0.5411
vn 0.4817 -0.8204 0.3081
vn -0.8839 -0.4674 -0.0164
vn 0.3574 -0.8592 -0.3661
vn -0.5478 -0.7607 0.3482
vn 0.4371 -0.7800 -0.4477
vn 0.7052 -0.1667 -0.6892
vn -0.6840 -0.4164 0.5990
vn -0.8526 0.5011 0.1482
vn -0.8665 0.4153 -0.2771
vn 0.5317 -0.0213 0.8467
vn 0.4203 -0.7757 0.4707
usemtl m394
s 1
f 16/1/1 31/2/2 17/3/3
usemtl m372
f 11/4/4 20/5/5 21/6/6
usemtl m370
f 9/7/7 20/8/5 10/9/8
usemtl m384
f 24/10/9 15/11/10 14/12/11
usemtl m399
f 19/13/12 21/14/6 20/15/5
usemtl m364
f 8/16/13 15/17/10 16/18/1
usemtl m346
f 1/19/14 4/20/15 5/21/16
usemtl m345
f 1/22/14 3/23/17 4/24/15
usemtl m376
f 12/25/18 23/26/19 24/27/9
usemtl m373
f 11/28/4 21/29/6 22/30/20
usemtl m400
f 21/31/6 26/32/21 33/33/22
usemtl m379
f 22/34/20 25/35/23 26/36/21
usemtl m367
f 8/37/13 18/38/24 19/39/12
usemtl m380
f 22/40/20 26/41/21 23/42/19
usemtl m366
f 8/43/13 17/44/3 18/45/24
usemtl m368
f 8/46/13 19/47/12 9/48/7
usemtl m357
f 5/49/16 11/50/4 12/51/18
usemtl m362
f 7/52/25 14/53/11 15/54/10
usemtl m375
f 12/55/18 22/56/20 23/57/19
usemtl m353
f 3/58/17 9/59/7 10/60/8
usemtl m387
f 26/61/21 18/62/24 27/63/26
usemtl m395
f 17/64/3 31/65/2 32/66/27
usemtl m383
f 24/67/9 27/68/26 15/69/10
usemtl m393
f 16/70/1 30/71/28 31/72/2
usemtl m354
f 3/73/17 10/74/8 4/75/15
usemtl m391
f 15/76/10 29/77/29 16/78/1
usemtl m356
f 5/79/16 10/80/8 11/81/4
usemtl m349
f 1/82/14 7/83/25 2/84/30
usemtl m360
f 6/85/31 13/86/32 7/87/25
usemtl m388
f 27/88/26 18/89/24 28/90/33
usemtl m381
f 23/91/19 26/92/21 27/93/26
usemtl m385
f 21/94/6 25/95/23 22/96/20
usemtl m361
f 7/97/25 13/98/32 14/99/11
usemtl m371
f 10/100/8 20/101/5 11/102/4
usemtl m365
f 8/103/13 16/104/1 17/105/3
usemtl m352
f 3/106/17 8/107/13 9/108/7
usemtl m390
f 27/109/26 29/110/29 15/111/10
usemtl m392
f 16/112/1 29/113/29 30/114/28
usemtl m363
f 7/115/25 15/116/10 8/117/13
usemtl m348
f 1/118/14 6/119/31 7/120/25
usemtl m377
f 12/121/18 24/122/9 14/123/11
usemtl m369
f 9/124/7 19/125/12 20/126/5
usemtl m549
f 29/127/29 34/128/34 30/129/28
usemtl m359
f 6/130/31 12/131/18 13/132/32
usemtl m397
f 17/133/3 28/134/33 18/135/24
usemtl m382
f 23/136/19 27/137/26 24/138/9
usemtl m389
f 27/139/26 28/140/33 29/141/29
usemtl m398
f 19/142/12 26/143/21 21/144/6
usemtl m347
f 1/145/14 5/146/16 6/147/31
usemtl m355
f 4/148/15 10/149/8 5/150/16
usemtl m374
f 11/151/4 22/152/20 12/153/18
usemtl m350
f 2/154/30 7/155/25 8/156/13
usemtl m344
f 1/157/14 2/158/30 3/159/17
usemtl m351
f 2/160/30 8/161/13 3/162/17
usemtl m396
f 17/163/3 32/164/27 28/165/33
usemtl m548
f 28/166/33 34/167/34 29/168/29
usemtl m386
f 26/169/21 19/170/12 18/171/24
usemtl m358
f 5/172/16 12/173/18 6/174/31
usemtl m547
f 28/175/33 32/176/27 34/177/34
f 32/178/27 31/179/2 30/180/28 34/181/34
usemtl m378
f 12/182/18 14/183/11 13/184/32
usemtl m401
f 33/185/22 26/186/21 25/187/23
