# Blender v2.79 (sub 0) OBJ File: ''
# www.blender.org
mtllib Icicle.mtl
o runescapemodel.001
v 0.162561 -0.251715 -0.399829
v 0.106406 -0.152264 -0.432120
v 0.173494 -0.124444 0.030618
v 0.103533 -0.123763 -0.399979
v -0.038236 -0.104092 -0.173838
v 0.174981 -0.139191 0.423244
v -0.002086 -0.211639 0.341263
v -0.023179 -0.253467 -0.133343
v -0.022592 -0.008214 0.382749
v 0.032347 -0.110943 0.845053
vn 0.9537 0.2579 0.1545
vn 0.1500 0.8556 -0.4954
vn -0.7403 0.6316 -0.2304
vn 0.9887 -0.1038 0.1079
vn -0.4925 -0.8646 0.0991
vn -0.5514 -0.8336 -0.0323
vn 0.4916 -0.5971 -0.6338
vn -0.4903 0.8707 0.0386
vn -0.0479 0.0143 0.9988
vn -0.0281 0.1920 -0.9810
usemtl m436
s 1
f 3//1 4//2 5//3
usemtl m437
f 3//1 5//3 6//4
usemtl m439
f 3//1 7//5 8//6
usemtl m435
f 3//1 1//7 4//2
usemtl m451
f 7//5 9//8 8//6
usemtl m448
f 6//4 9//8 10//9
usemtl m440
f 3//1 8//6 1//7
usemtl m441
f 1//7 8//6 2//10
usemtl m452
f 8//6 9//8 5//3
usemtl m443
f 2//10 4//2 1//7
f 2//10 5//3 4//2
usemtl m450
f 7//5 10//9 9//8
usemtl m442
f 2//10 8//6 5//3
usemtl m438
f 3//1 6//4 7//5
usemtl m449
f 6//4 10//9 7//5
usemtl m447
f 6//4 5//3 9//8
