# Blender v2.79 (sub 0) OBJ File: 'NPC_new.blend'
# www.blender.org
mtllib big_sack.mtl
o runescapemodel.011_runescapemodel.005
v -0.856090 3.594272 -1.361252
v -0.641890 3.841341 -1.181659
v -0.217816 4.187237 -0.871697
v -0.128020 4.236651 -0.978797
v -0.128020 4.088410 -0.978797
v -0.401735 4.038996 -0.711106
v -0.384431 4.088410 -0.540694
v -0.433655 4.187237 -0.557825
v -0.110716 4.236651 -0.781901
v 0.422097 4.187237 -0.927653
v 0.479973 4.088410 -0.831681
v -0.006303 3.791927 -1.287119
v -0.372500 3.791927 -1.502959
v -0.736012 3.791927 -1.123783
v -0.992424 3.643686 -0.654811
v -0.665153 3.742513 -0.317191
v -0.216105 4.038996 -0.393534
v -0.214821 4.088410 -0.383909
v -0.212663 4.187237 -0.389588
v -0.386071 4.384892 -0.100511
v -0.769572 4.582548 -0.425386
v -0.243771 4.483720 -1.167042
v 0.582747 4.236651 -0.793239
v 0.486593 4.127324 -0.458982
v 0.502405 4.038996 -0.569189
v 0.878015 3.742513 -0.820070
v 0.740711 3.742513 -1.253559
v 0.611981 3.396616 -1.589476
v -0.098785 3.446030 -1.775034
v -0.766293 3.396616 -1.468351
v -1.112501 3.396616 -0.892280
v -1.074598 3.347203 -0.460983
v -0.650385 3.248375 -0.214797
v -0.261774 3.594272 -0.243708
v 0.228298 3.643686 -0.303432
v 0.631056 4.148323 -0.536304
v 0.827228 4.582548 -0.269077
v 0.728780 4.631962 -0.260426
v -0.291948 4.483720 -0.150278
v -0.671124 4.631962 -0.415932
v -0.235119 4.631961 -1.068594
v 0.856462 4.483720 -1.065315
v 0.717442 4.533134 -0.953889
v -0.003616 4.236651 -0.694674
v -0.521812 2.704823 -0.944866
v -0.381152 2.951892 -1.601407
v 0.145696 2.704823 -1.250872
v 0.205211 3.001306 -1.702541
v 0.834833 2.951892 -1.311435
v 0.582747 2.704823 -0.794279
v 1.074921 3.001306 -0.837253
v 0.917926 2.951892 -0.416116
v 0.231717 2.704823 -0.435885
v 0.352163 3.001306 -0.250801
v -0.247792 2.951893 -0.274569
v -0.478669 2.704823 -0.525517
v -0.862418 3.001306 -0.343077
v -1.091090 2.951892 -0.648642
v -0.937234 3.001306 -1.155703
v 1.053359 3.396616 -1.082618
v 1.094687 3.347203 -0.612425
v 0.734945 3.248375 -0.278064
v 0.046668 3.248375 -0.227874
v 0.814703 3.643686 -0.406276
v 0.484299 4.780203 -0.784587
v 0.698499 4.681376 -0.604994
v 0.537849 4.335479 -0.739689
v 0.381525 4.384892 -0.825159
v 0.385851 4.829617 -0.775935
v 0.465356 4.928444 -0.435693
v 0.711476 4.631962 -0.457322
v 0.550826 4.286065 -0.592017
v 0.296054 4.187237 -0.668835
v 0.283077 4.434306 -0.816508
v 0.157034 4.829617 -0.557410
v 0.120787 4.780203 -0.405412
v 0.384211 4.631962 -0.230145
v 0.482659 4.582548 -0.238796
v 0.411806 4.236651 -0.480591
v 0.313358 4.286065 -0.471939
v 0.157034 4.335479 -0.557410
v 0.144056 4.384892 -0.705082
v -0.151288 4.879031 -0.679127
v 0.062911 4.879031 -0.499534
v 0.099158 4.483720 -0.651532
v -0.106390 4.483720 -0.732677
v -0.298961 4.879031 -0.666149
v -0.268680 4.977858 -0.321581
v 0.125113 4.829617 -0.356188
v 0.112135 4.434306 -0.503860
v -0.093413 4.236651 -0.585004
v -0.204838 4.483720 -0.724025
v -0.478554 4.780203 -0.451949
v -0.514800 4.681376 -0.299951
v -0.202152 4.681376 -0.129010
v -0.054480 4.681376 -0.141988
v 0.022339 4.335479 -0.396760
v -0.125333 4.335479 -0.383782
v -0.281657 4.335479 -0.469253
v -0.294635 4.335479 -0.616925
v 0.354417 3.757382 -0.197973
v 0.351402 3.667040 -0.242395
v 0.315976 3.723927 0.080482
v 0.300486 3.600351 0.093239
v 0.238243 3.652521 0.215191
v 0.258746 3.533267 0.191801
v -0.224230 3.640699 0.224193
v -0.224149 3.515991 0.182696
v -0.269983 3.697601 0.137464
v -0.265409 3.587423 0.080729
v -0.370980 3.841990 -0.212300
v -0.396526 3.734341 -0.269828
vn 0.3789 0.1834 -0.9071
vn 0.6372 0.2774 0.7191
vn 0.7581 0.4070 0.5096
vn 0.8451 -0.2135 0.4901
vn 0.9813 -0.1026 0.1627
vn 0.9989 -0.0474 0.0058
vn 0.6655 0.6624 -0.3442
vn 0.0864 -0.3017 -0.9495
vn -0.2390 -0.9350 -0.2620
vn -0.4075 -0.0729 -0.9103
vn 0.2453 0.9171 0.3141
vn -0.7120 0.6490 -0.2680
vn -0.7982 0.3766 0.4701
vn 0.0920 -0.8894 -0.4478
vn 0.6253 -0.5575 -0.5460
vn 0.4003 -0.9164 0.0074
vn 0.6123 -0.5143 0.6005
vn 0.3638 0.0270 0.9311
vn 0.1018 -0.3149 0.9436
vn 0.2892 -0.8293 -0.4781
vn -0.9751 0.2019 0.0921
vn 0.0379 0.8611 0.5070
vn -0.1714 0.9544 0.2445
vn -0.0571 -0.4384 0.8969
vn -0.2341 -0.0487 0.9710
vn -0.4626 -0.4599 0.7580
vn 0.0569 0.9943 -0.0897
vn 0.1124 0.8443 0.5239
vn 0.7828 0.2015 0.5887
vn 0.9291 0.1699 0.3286
vn 0.7669 0.6417 0.0046
vn 0.5557 0.4604 0.6923
vn 0.4956 0.6676 -0.5556
vn 0.2283 0.7529 -0.6172
vn -0.3264 -0.5747 -0.7505
vn -0.6696 0.1391 -0.7296
vn -0.0287 0.3028 -0.9526
vn 0.0380 0.0061 0.9993
vn -0.6046 0.7228 -0.3348
vn -0.9504 0.2073 -0.2319
vn -0.1452 0.6653 -0.7323
vn 0.1723 -0.4864 -0.8566
vn 0.8653 -0.4975 -0.0617
vn 0.9098 0.2034 -0.3619
vn -0.4174 0.5421 0.7293
vn 0.0097 0.2068 0.9783
vn -0.3057 0.2509 0.9185
vn -0.3199 -0.2360 0.9176
vn 0.4254 0.4510 -0.7846
vn 0.4684 0.2513 -0.8470
vn -0.6843 0.5758 -0.4475
vn -0.7672 -0.5545 0.3225
vn -0.8413 -0.5016 -0.2014
vn 0.0796 0.9851 0.1522
vn -0.6005 0.2723 -0.7519
vn -0.4069 -0.1878 -0.8939
vn 0.1323 -0.9490 -0.2862
vn -0.1280 -0.7540 0.6442
vn -0.5438 -0.7642 0.3469
vn 0.9077 0.2594 -0.3297
vn 0.6282 -0.4737 -0.6172
vn -0.6396 0.7680 -0.0341
vn -0.3399 -0.0908 0.9361
vn -0.2107 0.9089 0.3598
vn 0.4047 0.0054 0.9144
vn 0.8513 0.4347 0.2940
vn -0.2821 0.6424 -0.7125
vn -0.9008 -0.0675 0.4290
vn -0.6271 -0.6093 -0.4853
vn -0.1899 0.5794 -0.7926
vn -0.9059 0.3299 -0.2654
vn 0.1347 0.3028 0.9435
vn -0.3530 -0.1807 -0.9180
vn 0.4040 -0.8834 0.2377
vn -0.6838 -0.1364 -0.7168
vn -0.9096 -0.0031 -0.4154
vn -0.8860 -0.0224 -0.4631
vn -0.9385 0.0387 -0.3430
vn -0.9667 0.0688 -0.2465
vn -0.4914 0.1619 -0.8557
vn -0.5330 0.1502 -0.8327
vn 0.5151 0.2551 -0.8183
vn 0.6002 0.2461 -0.7610
vn 0.9448 0.1089 -0.3090
vn 0.9452 0.1072 -0.3083
vn -0.8135 -0.4854 0.3205
vn -0.8475 -0.2276 -0.4795
vn -0.1971 0.9309 -0.3074
vn 0.1894 0.6334 -0.7503
vn 0.6589 0.6841 -0.3128
vn 0.5376 -0.6872 0.4886
vn 0.1112 -0.6796 0.7251
vn -0.2587 -0.8112 0.5244
vn -0.7616 0.6315 0.1453
vn 0.7231 0.1072 -0.6824
vn -0.1516 -0.5051 0.8497
vn 0.9351 0.0224 0.3537
vn 0.3579 -0.1561 0.9206
vn 0.1699 -0.8276 0.5350
vn -0.1840 -0.0497 0.9817
vn -0.1792 0.7156 -0.6752
vn -0.4520 0.5572 -0.6966
vn 0.7820 -0.1580 -0.6029
vn 0.1413 -0.1803 -0.9734
vn 0.9350 -0.3501 0.0570
vn 0.7116 -0.6992 0.0685
vn -0.8326 0.1406 0.5357
vn -0.1906 0.0622 0.9797
vn -0.4017 -0.6315 0.6632
vn -0.3660 -0.8995 -0.2385
vn -0.7235 -0.5050 -0.4707
vn -0.8196 -0.5564 0.1368
usemtl m45.004
s 1
f 10//1 24//2 25//3
f 17//4 19//4 111//5 112//6
usemtl m46.004
f 10//1 25//3 11//7
usemtl m145.001
f 68//8 73//9 74//10
usemtl m149.001
f 70//11 75//12 76//13
usemtl m92.003
f 47//14 49//15 50//16
usemtl m114.003
f 52//17 62//18 54//19
usemtl m44.004
f 10//1 23//20 24//2
usemtl m73.004
f 21//21 39//22 40//23
usemtl m118.003
f 55//24 33//25 57//26
usemtl m88.003
f 43//27 38//28 37//29
usemtl m125.002
f 61//30 26//31 64//32
usemtl m49.004
f 11//7 27//33 12//34
usemtl m105.003
f 46//35 30//36 29//37
usemtl m115.003
f 54//19 62//18 63//38
usemtl m55.004
f 14//39 30//36 31//40
usemtl m48.004
f 11//7 26//31 27//33
usemtl m146.001
f 68//8 74//10 69//41
usemtl m106.003
f 46//35 29//37 48//42
usemtl m111.003
f 51//43 60//44 61//30
usemtl m61.004
f 16//45 34//46 17//47
usemtl m72.004
f 20//48 39//22 21//21
usemtl m138.002
f 65//49 69//41 70//11
usemtl m109.003
f 49//15 28//50 60//44
usemtl m21.004
f 3//51 7//52 8//53
usemtl m80.004
f 38//28 43//27 44//54
usemtl m42.004
f 9//55 22//56 23//20
usemtl m189
f 91//57 98//58 99//59
usemtl m135.002
f 65//49 66//60 67//61
usemtl m50.004
f 12//34 27//33 28//50
usemtl m35.004
f 6//62 18//63 7//52
usemtl m184.001
f 88//64 96//65 89//66
usemtl m108.003
f 48//42 28//50 49//15
usemtl m23.004
f 3//51 9//55 4//67
usemtl m194
f 94//68 100//69 99//59
usemtl m19.004
f 5//70 3//51 4//67
f 3//51 5//70 6//62
usemtl m193
f 93//71 100//69 94//68
usemtl m181.001
f 88//64 93//71 94//68
usemtl m63.004
f 17//47 35//72 25//3
usemtl m192
f 92//73 100//69 93//71
usemtl m66.004
f 18//63 24//2 36//74
f 24//75 36//75 102//76 101//77
f 101//77 102//76 104//78 103//79
f 103//79 104//78 106//80 105//81
f 105//81 106//80 108//82 107//83
f 107//83 108//82 110//84 109//85
f 109//85 110//84 112//6 111//5
usemtl m158.001
f 73//9 81//86 82//87
usemtl m83.003
f 40//23 44//54 41//88
usemtl m171.001
f 83//89 88//64 84//90
usemtl m188
f 91//57 97//91 98//58
usemtl m98.003
f 53//92 55//24 56//93
usemtl m56.004
f 14//39 31//40 15//94
usemtl m91.003
f 47//14 48//42 49//15
usemtl m87.003
f 42//95 37//29 36//74
usemtl m68.004
f 19//96 36//74 37//29
usemtl m153.001
f 71//97 78//98 79//99
usemtl m27.004
f 5//70 11//7 12//34
usemtl m183.001
f 88//64 95//100 96//65
usemtl m86.003
f 42//95 43//27 37//29
usemtl m52.004
f 12//34 29//37 13//101
usemtl m28.004
f 5//70 12//34 13//101
usemtl m43.004
f 9//55 23//20 10//1
usemtl m39.004
f 8//53 20//48 21//21
usemtl m71.004
f 20//48 38//28 39//22
usemtl m133.002
f 27//33 26//31 60//44
usemtl m179.001
f 87//102 92//73 93//71
usemtl m84.003
f 41//88 44//54 43//27
usemtl m67.004
f 18//63 36//74 19//96
usemtl m176.001
f 85//103 91//57 86//104
usemtl m174.001
f 84//90 90//105 85//103
usemtl m40.004
f 8//53 21//21 9//55
usemtl m132.002
f 25//3 64//32 26//31
usemtl m137.002
f 65//49 68//8 69//41
usemtl m37.004
f 7//52 19//96 8//53
usemtl m141.002
f 66//60 71//97 72//106
usemtl m57.004
f 15//94 31//40 32//107
usemtl m165.001
f 77//108 80//109 78//98
usemtl m95.003
f 50//16 52//17 53//92
usemtl m154.001
f 71//97 79//99 72//106
usemtl m76.004
f 22//56 41//88 42//95
usemtl m103.003
f 45//110 59//111 46//35
usemtl m117.003
f 55//24 63//38 33//25
usemtl m190
f 91//57 99//59 100//69
usemtl m30.004
f 5//70 14//39 6//62
usemtl m41.004
f 9//55 21//21 22//56
usemtl m113.003
f 52//17 61//30 62//18
usemtl m70.004
f 20//48 37//29 38//28
usemtl m152.001
f 70//11 78//98 71//97
usemtl m168.001
f 83//89 85//103 86//104
usemtl m26.004
f 4//67 11//7 5//70
usemtl m124.002
f 60//44 26//31 61//30
usemtl m187
f 90//105 97//91 91//57
usemtl m143.001
f 67//61 72//106 73//9
usemtl m163.001
f 76//13 81//86 77//108
usemtl m144.001
f 67//61 73//9 68//8
usemtl m130.002
f 63//38 34//46 33//25
usemtl m25.004
f 4//67 10//1 11//7
usemtl m60.004
f 16//45 33//25 34//46
usemtl m112.003
f 51//43 61//30 52//17
usemtl m36.004
f 7//52 18//63 19//96
usemtl m104.003
f 46//35 59//111 30//36
usemtl m197
f 95//100 98//58 96//65
usemtl m126.002
f 61//30 64//32 62//18
usemtl m169.001
f 83//89 86//104 87//102
usemtl m85.003
f 41//88 43//27 42//95
usemtl m185.001
f 89//66 96//65 97//91
usemtl m77.004
f 22//56 42//95 23//20
usemtl m69.004
f 19//96 37//29 20//48
usemtl m180.001
f 87//102 93//71 88//64
usemtl m33.004
f 6//62 16//45 17//47
usemtl m196
f 95//100 99//59 98//58
usemtl m59.004
f 16//45 32//107 33//25
usemtl m96.003
f 53//92 52//17 54//19
usemtl m167.001
f 83//89 84//90 85//103
usemtl m54.004
f 13//101 30//36 14//39
usemtl m195
f 94//68 99//59 95//100
usemtl m140.002
f 66//60 70//11 71//97
usemtl m161.001
f 75//12 82//87 76//13
usemtl m31.004
f 6//62 14//39 15//94
usemtl m97.003
f 53//92 54//19 55//24
usemtl m175.001
f 85//103 90//105 91//57
usemtl m134.002
f 27//33 60//44 28//50
usemtl m22.004
f 3//51 8//53 9//55
usemtl m90.003
f 47//14 46//35 48//42
usemtl m162.001
f 76//13 82//87 81//86
usemtl m79.004
f 23//20 36//74 24//2
usemtl m93.003
f 50//16 49//15 51//43
usemtl m139.002
f 65//49 70//11 66//60
usemtl m32.004
f 6//62 15//94 16//45
usemtl m102.003
f 45//110 58//112 59//111
usemtl m172.001
f 84//90 88//64 89//66
usemtl m128.002
f 62//18 35//72 63//38
usemtl m107.003
f 48//42 29//37 28//50
usemtl m142.002
f 66//60 72//106 67//61
usemtl m58.004
f 15//94 32//107 16//45
usemtl m198
f 96//65 98//58 97//91
usemtl m173.001
f 84//90 89//66 90//105
usemtl m157.001
f 73//9 80//109 81//86
usemtl m65.004
f 17//47 24//2 18//63
usemtl m24.004
f 4//67 9//55 10//1
usemtl m148.001
f 69//41 75//12 70//11
usemtl m29.004
f 5//70 13//101 14//39
usemtl m94.003
f 50//16 51//43 52//17
usemtl m182.001
f 88//64 94//68 95//100
usemtl m38.004
f 8//53 19//96 20//48
usemtl m101.003
f 56//93 58//112 45//110
usemtl m150.001
f 70//11 76//13 77//108
usemtl m170.001
f 83//89 87//102 88//64
usemtl m89.003
f 45//110 46//35 47//14
usemtl m81.003
f 38//28 44//54 39//22
usemtl m47.004
f 11//7 25//3 26//31
usemtl m122.003
f 58//112 31//40 59//111
usemtl m64.004
f 17//47 25//3 24//2
usemtl m34.004
f 6//62 17//47 18//63
usemtl m51.004
f 12//34 28//50 29//37
usemtl m127.002
f 62//18 64//32 35//72
usemtl m53.004
f 13//101 29//37 30//36
usemtl m75.004
f 22//56 40//23 41//88
usemtl m131.002
f 64//32 25//3 35//72
usemtl m136.002
f 65//49 67//61 68//8
usemtl m147.001
f 69//41 74//10 75//12
usemtl m116.003
f 54//19 63//38 55//24
usemtl m99.003
f 56//93 55//24 57//26
usemtl m156.001
f 73//9 79//99 80//109
usemtl m155.001
f 72//106 79//99 73//9
usemtl m110.003
f 49//15 60//44 51//43
usemtl m120.003
f 57//26 32//107 58//112
usemtl m177.001
f 86//104 91//57 92//73
usemtl m74.004
f 21//21 40//23 22//56
usemtl m186.001
f 89//66 97//91 90//105
usemtl m123.003
f 59//111 31//40 30//36
usemtl m160.001
f 74//10 82//87 75//12
usemtl m78.004
f 23//20 42//95 36//74
usemtl m151.001
f 70//11 77//108 78//98
usemtl m191
f 91//57 100//69 92//73
usemtl m159.001
f 73//9 82//87 74//10
usemtl m62.004
f 17//47 34//46 35//72
usemtl m129.002
f 63//38 35//72 34//46
usemtl m178.001
f 86//104 92//73 87//102
usemtl m82.003
f 39//22 44//54 40//23
usemtl m100.003
f 56//93 57//26 58//112
usemtl m119.003
f 57//26 33//25 32//107
usemtl m164.001
f 77//108 81//86 80//109
usemtl m166.001
f 78//98 80//109 79//99
usemtl m121.003
f 58//112 32//107 31//40
usemtl m20.004
f 3//51 6//62 7//52
l 1 2
