# Blender v2.79 (sub 0) OBJ File: 'NPC_new.blend'
# www.blender.org
mtllib NPC_leg_bottom_right.mtl
o runescapemodel.006_runescapemodel.008
v 0.111678 0.059376 -0.168763
v -0.088728 0.059376 -0.168763
v -0.088728 -0.040828 0.081744
v 0.111678 -0.040828 0.081744
v 0.086627 -0.291335 0.056694
v 0.111678 -0.341437 -0.193814
v -0.138830 -0.341437 -0.193814
v -0.088728 -0.291335 0.056694
v 0.086627 -1.518823 0.232049
v -0.188931 -1.518823 0.232049
v -0.163880 -1.518823 -0.193814
v 0.111678 -1.518823 -0.193814
v 0.086627 -1.343467 -0.018459
v 0.086627 -1.393569 0.232049
v -0.038627 -1.293366 0.407404
v -0.188931 -1.393569 0.232049
v -0.163880 -1.343467 -0.018459
v -0.163880 -1.418620 -0.218865
v 0.111678 -1.418620 -0.218865
v 0.061576 -1.193163 0.006592
v -0.113779 -1.193163 0.006592
v -0.163880 -1.318417 -0.168764
v 0.161779 -0.341437 0.156897
v -0.138830 -0.341437 0.156897
v -0.188931 -0.516792 -0.268966
v 0.086627 -1.318417 -0.168764
v 0.186830 -0.516792 -0.268966
v -0.113779 -0.341437 -0.193814
v 0.111678 -1.518823 -0.018459
vt 0.951345 0.910691
vt 0.910691 0.951345
vt 0.910691 0.910691
vt 0.996800 0.365236
vt 0.910691 0.451345
vt 0.910691 0.365236
vt 0.637964 0.910691
vt 0.724073 0.910691
vt 0.637964 0.951345
vt 0.951345 0.547055
vt 0.910691 0.633164
vt 0.910691 0.547055
vt 0.956145 0.814982
vt 0.956145 0.728873
vt 0.996800 0.728873
vt 0.951345 0.728873
vt 0.865236 0.814982
vt 0.865236 0.728873
vt 0.725673 0.730473
vt 0.548655 0.816582
vt 0.725673 0.816582
vt 0.365236 0.178618
vt 0.365236 0.001600
vt 0.542255 0.001600
vt 0.996800 0.092509
vt 0.956145 0.178618
vt 0.956145 0.092509
vt 0.728873 0.996800
vt 0.728873 0.956145
vt 0.814982 0.956145
vt 0.547055 0.956145
vt 0.547055 0.996800
vt 0.633164 0.956145
vt 0.956145 0.087709
vt 0.956145 0.001600
vt 0.996800 0.001600
vt 0.180218 0.912291
vt 0.180218 0.998400
vt 0.094109 0.998400
vt 0.912291 0.271127
vt 0.998400 0.185018
vt 0.998400 0.271127
vt 0.185018 0.816582
vt 0.362036 0.816582
vt 0.362036 0.730473
vt 0.819782 0.365236
vt 0.819782 0.542255
vt 0.905891 0.365236
vt 0.087709 0.910691
vt 0.001600 0.910691
vt 0.001600 0.996800
vt 0.910691 0.360436
vt 0.996800 0.274327
vt 0.910691 0.274327
vt 0.866836 0.816582
vt 0.952945 0.730473
vt 0.952945 0.816582
vt 0.728873 0.905891
vt 0.728873 0.819782
vt 0.814982 0.819782
vt 0.637964 0.996800
vt 0.724073 0.956145
vt 0.637964 0.956145
vt 0.951345 0.456145
vt 0.910691 0.542255
vt 0.910691 0.456145
vt 0.951345 0.819782
vt 0.865236 0.905891
vt 0.865236 0.819782
vt 0.956145 0.724073
vt 0.956145 0.637964
vt 0.996800 0.637964
vt 0.274327 0.910691
vt 0.274327 0.996800
vt 0.360436 0.910691
vt 0.180218 0.821382
vt 0.180218 0.907491
vt 0.003200 0.907491
vt 0.819782 0.724073
vt 0.905891 0.547055
vt 0.819782 0.547055
vt 0.956145 0.819782
vt 0.996800 0.819782
vt 0.956145 0.905891
vt 0.819782 0.951345
vt 0.819782 0.910691
vt 0.905891 0.910691
vt 0.816582 0.543855
vt 0.816582 0.366836
vt 0.730473 0.543855
vt 0.956145 0.542255
vt 0.996800 0.456145
vt 0.956145 0.456145
vt 0.907491 0.185018
vt 0.821382 0.362036
vt 0.907491 0.362036
vt 0.365236 0.996800
vt 0.365236 0.910691
vt 0.451345 0.910691
vt 0.547055 0.951345
vt 0.547055 0.910691
vt 0.633164 0.910691
vt 0.819782 0.996800
vt 0.905891 0.956145
vt 0.819782 0.956145
vt 0.860436 0.728873
vt 0.819782 0.728873
vt 0.819782 0.905891
vt 0.819782 0.001600
vt 0.905891 0.001600
vt 0.819782 0.178618
vt 0.001600 0.178618
vt 0.178618 0.001600
vt 0.001600 0.001600
vt 0.542255 0.728873
vt 0.365236 0.814982
vt 0.365236 0.728873
vt 0.456145 0.951345
vt 0.456145 0.910691
vt 0.542255 0.910691
vt 0.951345 0.637964
vt 0.910691 0.724073
vt 0.910691 0.637964
vt 0.178618 0.819782
vt 0.001600 0.905891
vt 0.001600 0.819782
vt 0.456145 0.996800
vt 0.456145 0.956145
vt 0.542255 0.956145
vt 0.956145 0.547055
vt 0.956145 0.633164
vt 0.996800 0.547055
vt 0.360436 0.001600
vt 0.183418 0.001600
vt 0.183418 0.178618
vt 0.271127 0.912291
vt 0.271127 0.998400
vt 0.185018 0.998400
vt 0.183418 0.819782
vt 0.360436 0.819782
vt 0.183418 0.905891
vt 0.728873 0.951345
vt 0.728873 0.910691
vt 0.814982 0.910691
vt 0.547055 0.724073
vt 0.547055 0.637964
vt 0.724073 0.637964
vt 0.365236 0.905891
vt 0.365236 0.819782
vt 0.542255 0.819782
vn -0.6028 0.4177 0.6798
vn 0.6096 0.6363 0.4727
vn -0.7037 0.5234 0.4804
vn -0.7204 0.1575 -0.6755
vn -0.6421 0.5176 -0.5656
vn -0.8984 -0.0029 -0.4392
vn 0.7277 0.2400 -0.6426
vn -0.6455 0.1067 -0.7563
vn -0.5852 -0.6334 -0.5063
vn -0.8740 0.4304 0.2255
vn 0.0000 -0.0000 1.0000
vn 0.8286 0.4477 0.3361
vn -0.7927 0.4262 0.4359
vn 0.0360 0.6491 0.7598
vn 0.6336 0.0175 -0.7735
vn -0.7036 0.0873 -0.7052
vn -0.6019 0.1245 -0.7888
vn 0.6161 -0.1386 0.7753
vn 0.7191 0.1169 -0.6850
vn 0.6294 0.4066 0.6622
vn 0.6241 0.3761 -0.6848
vn -0.7261 -0.6849 -0.0610
vn -0.7718 0.6340 0.0496
vn 0.8668 0.3339 0.3704
vn 0.6833 0.1202 -0.7202
vn 0.7895 -0.1387 0.5978
vn -0.7243 -0.0090 0.6894
vn 0.7052 -0.7089 0.0161
vn 0.6251 -0.6224 -0.4710
vn -0.5993 -0.0877 0.7957
vn -0.3681 -0.4054 0.8368
vn 0.7476 0.6512 0.1302
vn 0.3755 -0.4300 0.8210
usemtl m108.002
s 1
f 24/1/1 5/2/2 8/3/3
usemtl m110.002
f 25/4/4 8/5/3 28/6/5
usemtl m100.002
f 22/7/6 26/8/7 18/9/8
usemtl m83.002
f 11/10/9 17/11/10 18/12/8
usemtl m113.002
f 14/13/11 16/14/11 10/15/11
usemtl m91.002
f 14/16/12 16/17/13 15/18/14
usemtl m19.002
f 1/19/15 7/20/16 2/21/17
usemtl m104.002
f 20/22/18 27/23/19 23/24/20
usemtl m106.002
f 23/25/20 6/26/21 5/27/2
usemtl m81.002
f 10/28/22 16/29/23 17/30/10
usemtl m88.002
f 13/31/24 20/32/18 17/33/10
usemtl m101.002
f 18/34/8 26/35/7 19/36/25
usemtl m16.002
f 1/37/15 4/38/26 5/39/2
usemtl m21.002
f 3/40/27 7/41/16 8/42/3
usemtl m18.002
f 1/43/15 6/44/21 7/45/16
usemtl m99.002
f 22/46/6 25/47/4 26/48/7
usemtl m89.002
f 13/49/24 17/50/10 16/51/23
usemtl m76.002
f 9/52/28 12/53/29 13/54/24
usemtl m23.002
f 3/55/27 5/56/2 4/57/26
usemtl m115.002
f 28/58/5 6/59/21 27/60/19
usemtl m93.002
f 21/61/30 18/62/8 17/63/10
usemtl m80.002
f 10/64/31 15/65/14 16/66/13
usemtl m90.002
f 13/67/24 16/68/23 14/69/32
usemtl m92.002
f 21/70/30 22/71/6 18/72/8
usemtl m79.002
f 9/73/33 15/74/14 10/75/31
usemtl m74.002
f 9/76/28 10/77/22 11/78/9
usemtl m96.002
f 21/79/30 23/80/20 24/81/1
usemtl m94.002
f 21/82/30 17/83/10 20/84/18
usemtl m86.002
f 12/85/29 19/86/25 13/87/24
usemtl m20.002
f 2/88/17 7/89/16 3/90/27
usemtl m85.002
f 11/91/9 19/92/25 12/93/29
usemtl m17.002
f 1/94/15 5/95/2 6/96/21
usemtl m82.002
f 10/97/22 17/98/10 11/99/9
usemtl m84.002
f 11/100/9 18/101/8 19/102/25
usemtl m114.002
f 14/103/11 10/104/11 9/105/11
usemtl m109.002
f 24/106/1 8/107/3 25/108/4
usemtl m103.002
f 20/109/18 26/110/7 27/111/19
usemtl m97.002
f 21/112/30 24/113/1 25/114/4
usemtl m105.002
f 23/115/20 27/116/19 6/117/21
usemtl m78.002
f 9/118/33 14/119/12 15/120/14
usemtl m77.002
f 9/121/28 13/122/24 14/123/32
usemtl m75.002
f 9/124/28 11/125/9 12/126/29
usemtl m107.002
f 23/127/20 5/128/2 24/129/1
usemtl m87.002
f 13/130/24 19/131/25 20/132/18
usemtl m112.002
f 25/133/4 27/134/19 26/135/7
usemtl m22.002
f 3/136/27 8/137/3 5/138/2
usemtl m98.002
f 21/139/30 25/140/4 22/141/6
usemtl m102.002
f 19/142/25 26/143/7 20/144/18
usemtl m111.002
f 25/145/4 28/146/5 27/147/19
usemtl m95.002
f 21/148/30 20/149/18 23/150/20
