# Blender v2.79 (sub 0) OBJ File: 'NPC_new.blend'
# www.blender.org
mtllib NPC_skirt.mtl
o runescapemodel.002
v -0.309889 -0.020528 0.205431
v -0.309889 -0.020528 -0.195381
v -0.385041 -0.321137 -0.345685
v -0.435143 -0.321137 0.255533
v 0.015771 -0.321137 0.255533
v 0.316380 -0.020528 0.205431
v 0.466685 -0.321137 0.255533
v 0.441634 -0.321137 -0.345685
v 0.316380 -0.020528 -0.195381
v 0.015771 -0.496493 -0.320635
v -0.435143 -0.496493 -0.320635
v -0.510295 -0.772051 -0.370736
v -0.535346 -0.646797 0.305634
v 0.015771 -0.671848 0.430888
v 0.566888 -0.596696 0.305634
v 0.441634 -0.496493 -0.320635
v 0.015771 -0.747000 -0.495990
v 0.491736 -0.772051 -0.370736
vt 0.543855 0.634764
vt 0.366836 0.634764
vt 0.543855 0.548655
vt 0.180218 0.548655
vt 0.180218 0.725673
vt 0.003200 0.725673
vt 0.360436 0.547055
vt 0.183418 0.547055
vt 0.183418 0.633164
vt 0.362036 0.639564
vt 0.362036 0.725673
vt 0.185018 0.725673
vt 0.547055 0.633164
vt 0.547055 0.547055
vt 0.724073 0.547055
vt 0.725673 0.185018
vt 0.639564 0.362036
vt 0.725673 0.362036
vt 0.547055 0.360436
vt 0.633164 0.183418
vt 0.547055 0.183418
vt 0.178618 0.365236
vt 0.001600 0.542255
vt 0.001600 0.365236
vt 0.365236 0.633164
vt 0.365236 0.547055
vt 0.542255 0.547055
vt 0.360436 0.365236
vt 0.183418 0.542255
vt 0.183418 0.365236
vt 0.547055 0.365236
vt 0.547055 0.542255
vt 0.633164 0.365236
vt 0.548655 0.362036
vt 0.634764 0.362036
vt 0.634764 0.185018
vt 0.180218 0.366836
vt 0.180218 0.543855
vt 0.003200 0.543855
vt 0.366836 0.543855
vt 0.543855 0.543855
vt 0.543855 0.366836
vt 0.183418 0.724073
vt 0.183418 0.637964
vt 0.360436 0.637964
vt 0.814982 0.001600
vt 0.728873 0.001600
vt 0.728873 0.178618
vt 0.542255 0.365236
vt 0.365236 0.365236
vt 0.365236 0.542255
vt 0.816582 0.725673
vt 0.730473 0.725673
vt 0.816582 0.548655
vt 0.728873 0.547055
vt 0.728873 0.724073
vt 0.814982 0.547055
vt 0.001600 0.724073
vt 0.178618 0.547055
vt 0.001600 0.547055
vt 0.362036 0.366836
vt 0.185018 0.543855
vt 0.362036 0.543855
vt 0.816582 0.180218
vt 0.730473 0.180218
vt 0.816582 0.003200
vt 0.637964 0.360436
vt 0.724073 0.183418
vt 0.637964 0.183418
vt 0.724073 0.001600
vt 0.547055 0.178618
vt 0.547055 0.001600
vt 0.365236 0.183418
vt 0.365236 0.360436
vt 0.542255 0.183418
vt 0.362036 0.634764
vt 0.362036 0.548655
vt 0.185018 0.634764
vn -0.5879 0.2555 -0.7675
vn -0.0415 0.1992 -0.9791
vn -0.6831 0.2229 -0.6955
vn -0.6209 0.3444 0.7042
vn 0.0254 0.2890 0.9570
vn 0.5727 0.3913 0.7203
vn -0.7057 0.3893 0.5920
vn -0.6397 0.3899 -0.6623
vn -0.7955 0.3236 0.5123
vn 0.0240 0.4003 0.9161
vn 0.7090 0.1648 -0.6857
vn 0.6823 0.2490 -0.6874
vn -0.0600 0.5137 -0.8559
vn 0.7503 0.4152 0.5145
vn 0.6815 0.3736 0.6293
vn 0.6586 0.2094 -0.7227
vn -0.6901 0.4542 -0.5634
vn 0.6144 0.5425 -0.5729
usemtl m126.001
s 1
f 3/1/1 10/2/2 11/3/3
usemtl m119.002
f 1/4/4 5/5/5 6/6/6
usemtl m128.001
f 4/7/7 11/8/3 12/9/8
usemtl m130.001
f 4/10/7 13/11/9 14/12/10
usemtl m140.001
f 16/13/11 18/14/12 17/15/13
usemtl m133.001
f 5/16/5 15/17/14 7/18/15
usemtl m135.001
f 7/19/15 16/20/11 8/21/16
usemtl m117.002
f 1/22/4 3/23/1 4/24/7
usemtl m136.001
f 8/25/16 16/26/11 10/27/2
usemtl m125.001
f 3/28/1 8/29/16 10/30/2
usemtl m137.001
f 10/31/2 16/32/11 17/33/13
usemtl m127.001
f 3/34/1 11/35/3 4/36/7
usemtl m116.002
f 1/37/4 2/38/17 3/39/1
usemtl m121.002
f 6/40/6 7/41/15 8/42/16
usemtl m138.001
f 10/43/2 17/44/13 12/45/8
usemtl m141.001
f 18/46/12 16/47/11 15/48/14
usemtl m132.001
f 5/49/5 14/50/10 15/51/14
usemtl m118.002
f 1/52/4 4/53/7 5/54/5
usemtl m120.002
f 6/55/6 5/56/5 7/57/15
usemtl m131.001
f 4/58/7 14/59/10 5/60/5
usemtl m122.002
f 6/61/6 8/62/16 9/63/18
usemtl m134.001
f 7/64/15 15/65/14 16/66/11
usemtl m139.001
f 10/67/2 12/68/8 11/69/3
usemtl m129.001
f 4/70/7 12/71/8 13/72/9
usemtl m124.001
f 2/73/17 8/74/16 3/75/1
usemtl m123.002
f 9/76/18 8/77/16 2/78/17
