# Blender v2.79 (sub 0) OBJ File: 'NPC_new.blend'
# www.blender.org
mtllib NPC_torso.mtl
o runescapemodel.003
v 0.316380 0.118178 0.106795
v 0.316380 0.017975 -0.268966
v 0.316380 0.118178 -0.268966
v -0.309889 0.118178 -0.268966
v -0.309889 0.118178 0.106795
v -0.309889 0.017975 0.131846
v 0.316380 0.017975 0.131846
v -0.309889 0.017975 -0.268966
v 0.241228 0.343635 -0.193814
v 0.191126 0.343635 0.106795
v 0.266279 0.118178 0.106795
v 0.316380 0.118178 -0.243915
v -0.209686 0.343635 -0.193814
v 0.015771 0.969904 -0.319068
v 0.341431 0.894752 -0.243915
v 0.341431 0.894752 -0.093611
v 0.266279 0.794549 0.181948
v 0.015771 0.769498 0.206999
v -0.159584 0.343635 0.106795
v -0.234737 0.118178 0.106795
v -0.309889 0.118178 -0.243915
v -0.234737 0.794549 0.181948
v -0.334940 0.894752 -0.093611
v -0.334940 0.894752 -0.243915
v -0.385041 1.145260 -0.243915
v 0.015771 1.245463 -0.319068
v 0.416583 1.345666 -0.193814
v 0.416583 1.145260 -0.243915
v 0.416583 1.345666 -0.018458
v 0.341431 1.220412 0.131846
v 0.266279 1.045057 0.407405
v 0.141025 1.045057 0.457506
v 0.015771 1.070107 0.332252
v -0.109483 1.045057 0.457506
v -0.134534 1.395768 0.056694
v -0.084432 1.445869 -0.193814
v -0.309889 1.370717 0.056694
v -0.209686 1.220412 0.232049
v 0.015771 1.220412 0.307202
v 0.166076 1.395768 0.056694
v 0.241228 1.220412 0.206999
v 0.316380 1.370717 0.056694
v 0.115974 1.445869 -0.193814
v -0.385041 1.345666 -0.193814
v -0.385041 1.345666 -0.018458
v -0.334940 1.220412 0.131846
v -0.234737 1.045057 0.407405
vt 0.776178 0.220622
vt 0.669867 0.220622
vt 0.776178 0.003200
vt 0.003200 0.998400
vt 0.109511 0.998400
vt 0.109511 0.892089
vt 0.996800 0.334933
vt 0.946044 0.552356
vt 0.946044 0.334933
vt 0.668267 0.219022
vt 0.774578 0.001600
vt 0.668267 0.001600
vt 0.331733 0.447644
vt 0.331733 0.665067
vt 0.225422 0.665067
vt 0.668267 0.774578
vt 0.774578 0.557156
vt 0.668267 0.557156
vt 0.892089 0.331733
vt 0.998400 0.225422
vt 0.998400 0.331733
vt 0.669867 0.331733
vt 0.887289 0.225422
vt 0.887289 0.331733
vt 0.890489 0.112711
vt 0.996800 0.112711
vt 0.890489 0.219022
vt 0.776178 0.553956
vt 0.776178 0.336533
vt 0.669867 0.553956
vt 0.223822 0.219022
vt 0.223822 0.001600
vt 0.441244 0.001600
vt 0.668267 0.334933
vt 0.774578 0.334933
vt 0.668267 0.552356
vt 0.003200 0.665067
vt 0.220622 0.447644
vt 0.220622 0.665067
vt 0.003200 0.220622
vt 0.220622 0.003200
vt 0.220622 0.220622
vt 0.887289 0.558756
vt 0.887289 0.665067
vt 0.780978 0.665067
vt 0.885689 0.668267
vt 0.779378 0.774578
vt 0.779378 0.668267
vt 0.892089 0.109511
vt 0.998400 0.003200
vt 0.998400 0.109511
vt 0.442844 0.225422
vt 0.442844 0.442844
vt 0.225422 0.442844
vt 0.446044 0.885689
vt 0.663467 0.779378
vt 0.446044 0.779378
vt 0.553956 0.942844
vt 0.553956 0.892089
vt 0.336533 0.942844
vt 0.441244 0.779378
vt 0.223822 0.779378
vt 0.223822 0.885689
vt 0.947644 0.665067
vt 0.998400 0.558756
vt 0.998400 0.665067
vt 0.669867 0.887289
vt 0.887289 0.887289
vt 0.887289 0.780978
vt 0.776178 0.892089
vt 0.776178 0.942844
vt 0.669867 0.942844
vt 0.001600 0.441244
vt 0.219022 0.223822
vt 0.001600 0.223822
vt 0.442844 0.665067
vt 0.442844 0.447644
vt 0.336533 0.665067
vt 0.890489 0.107911
vt 0.890489 0.001600
vt 0.996800 0.001600
vt 0.223822 0.668267
vt 0.441244 0.668267
vt 0.223822 0.774578
vt 0.663467 0.557156
vt 0.446044 0.663467
vt 0.446044 0.557156
vt 0.885689 0.334933
vt 0.779378 0.552356
vt 0.779378 0.334933
vt 0.668267 0.890489
vt 0.774578 0.890489
vt 0.668267 0.941244
vt 0.219022 0.001600
vt 0.001600 0.001600
vt 0.001600 0.219022
vt 0.665067 0.892089
vt 0.665067 0.998400
vt 0.558756 0.998400
vt 0.665067 0.225422
vt 0.447644 0.442844
vt 0.665067 0.442844
vt 0.219022 0.446044
vt 0.001600 0.446044
vt 0.001600 0.663467
vt 0.220622 0.998400
vt 0.114311 0.998400
vt 0.220622 0.892089
vt 0.776178 0.776178
vt 0.776178 0.558756
vt 0.669867 0.776178
vt 0.890489 0.334933
vt 0.890489 0.552356
vt 0.941244 0.334933
vt 0.225422 0.776178
vt 0.442844 0.776178
vt 0.442844 0.669867
vt 0.220622 0.887289
vt 0.220622 0.780978
vt 0.003200 0.887289
vt 0.334933 0.663467
vt 0.441244 0.446044
vt 0.334933 0.446044
vt 0.223822 0.890489
vt 0.223822 0.996800
vt 0.330133 0.890489
vt 0.001600 0.774578
vt 0.219022 0.668267
vt 0.001600 0.668267
vt 0.890489 0.774578
vt 0.941244 0.557156
vt 0.890489 0.557156
vt 0.892089 0.776178
vt 0.942844 0.776178
vt 0.942844 0.558756
vt 0.996800 0.557156
vt 0.946044 0.557156
vt 0.946044 0.663467
vt 0.219022 0.779378
vt 0.001600 0.885689
vt 0.001600 0.779378
vt 0.446044 0.552356
vt 0.663467 0.446044
vt 0.446044 0.446044
vt 0.112711 0.996800
vt 0.112711 0.890489
vt 0.219022 0.890489
vt 0.780978 0.553956
vt 0.887289 0.336533
vt 0.887289 0.553956
vt 0.885689 0.001600
vt 0.779378 0.219022
vt 0.779378 0.001600
vt 0.885689 0.557156
vt 0.779378 0.663467
vt 0.779378 0.557156
vt 0.225422 0.887289
vt 0.442844 0.780978
vt 0.442844 0.887289
vt 0.998400 0.336533
vt 0.947644 0.553956
vt 0.998400 0.553956
vt 0.942844 0.336533
vt 0.942844 0.553956
vt 0.892089 0.553956
vt 0.998400 0.220622
vt 0.998400 0.114311
vt 0.892089 0.220622
vt 0.887289 0.003200
vt 0.887289 0.220622
vt 0.780978 0.220622
vt 0.447644 0.665067
vt 0.665067 0.665067
vt 0.665067 0.558756
vt 0.996800 0.223822
vt 0.890489 0.223822
vt 0.890489 0.330133
vt 0.447644 0.220622
vt 0.665067 0.220622
vt 0.665067 0.003200
vt 0.220622 0.669867
vt 0.003200 0.776178
vt 0.220622 0.776178
vt 0.942844 0.780978
vt 0.892089 0.887289
vt 0.942844 0.887289
vt 0.663467 0.001600
vt 0.446044 0.001600
vt 0.446044 0.219022
vt 0.223822 0.441244
vt 0.441244 0.223822
vt 0.223822 0.223822
vt 0.225422 0.998400
vt 0.331733 0.892089
vt 0.331733 0.998400
vt 0.887289 0.669867
vt 0.887289 0.776178
vt 0.780978 0.776178
vt 0.446044 0.441244
vt 0.446044 0.223822
vt 0.663467 0.223822
vt 0.223822 0.446044
vt 0.223822 0.663467
vt 0.330133 0.446044
vt 0.447644 0.553956
vt 0.665067 0.447644
vt 0.665067 0.553956
vt 0.663467 0.890489
vt 0.557156 0.890489
vt 0.557156 0.996800
vt 0.890489 0.779378
vt 0.890489 0.885689
vt 0.941244 0.779378
vt 0.665067 0.669867
vt 0.447644 0.776178
vt 0.665067 0.776178
vt 0.446044 0.774578
vt 0.663467 0.668267
vt 0.446044 0.668267
vt 0.220622 0.225422
vt 0.003200 0.442844
vt 0.220622 0.442844
vt 0.442844 0.220622
vt 0.442844 0.003200
vt 0.225422 0.220622
vt 0.668267 0.885689
vt 0.668267 0.779378
vt 0.885689 0.779378
vt 0.447644 0.887289
vt 0.665067 0.780978
vt 0.665067 0.887289
vt 0.885689 0.223822
vt 0.668267 0.223822
vt 0.668267 0.330133
vt 0.001600 0.890489
vt 0.107911 0.890489
vt 0.001600 0.996800
vt 0.552356 0.890489
vt 0.334933 0.941244
vt 0.334933 0.890489
vn 0.7484 0.0682 -0.6597
vn 0.7126 0.3700 -0.5960
vn -0.7329 0.0927 -0.6740
vn -0.1146 0.8712 0.4773
vn -0.4243 0.7860 0.4497
vn -0.3304 0.6827 0.6517
vn -0.7071 0.0000 -0.7071
vn -0.5913 0.6356 0.4963
vn -0.5774 0.5774 -0.5774
vn 0.0135 -0.0601 -0.9981
vn 0.7432 0.4839 -0.4620
vn 0.9444 -0.0414 -0.3262
vn 0.5913 0.6356 0.4963
vn -0.6450 0.1853 0.7414
vn 0.9783 -0.1774 0.1075
vn 0.8319 0.5076 0.2244
vn 0.0240 0.6814 0.7315
vn 0.0825 0.0006 0.9966
vn 0.0000 -0.1019 0.9948
vn 0.1688 0.7398 -0.6513
vn 0.3750 0.7913 0.4829
vn -0.8607 0.1670 0.4810
vn -0.6427 0.0170 0.7659
vn 0.0310 0.2266 -0.9735
vn -0.9740 -0.1877 0.1271
vn -0.7107 -0.3824 0.5905
vn -0.1629 0.7392 -0.6534
vn -0.7351 0.5098 -0.4469
vn 0.6074 -0.0424 0.7933
vn 0.0000 -0.4273 0.9041
vn -0.6017 -0.0358 0.7979
vn 0.7385 -0.3628 0.5682
vn 0.6971 0.2231 0.6814
vn 0.1413 0.8581 0.4937
vn 0.3462 0.6804 0.6459
vn 0.6450 0.1853 0.7414
vn 0.7071 0.0000 -0.7071
vn -0.8438 0.5081 0.1725
vn 0.8377 0.1864 0.5134
vn -0.7607 -0.1644 -0.6279
vn -0.6769 0.2256 0.7006
vn 0.7563 -0.1738 -0.6307
vn -0.7197 0.4222 -0.5512
vn -0.0744 0.0158 0.9971
vn -0.9257 -0.0491 -0.3750
vn 0.5774 0.5774 -0.5774
vn 0.6582 0.0478 0.7513
usemtl m12.003
s 1
f 9/1/1 12/2/2 13/3/3
usemtl m47.003
f 35/4/4 37/5/5 38/6/6
usemtl m9.003
f 8/7/7 5/8/8 4/9/9
usemtl m31.003
f 14/10/10 27/11/11 28/12/12
usemtl m3.003
f 1/13/13 5/14/8 6/15/14
usemtl m35.003
f 16/16/15 27/17/11 29/18/16
usemtl m64.003
f 39/19/17 34/20/18 33/21/19
usemtl m53.003
f 43/22/20 42/23/21 27/24/11
usemtl m61.003
f 38/25/6 46/26/22 47/27/23
usemtl m54.003
f 43/28/20 27/29/11 26/30/24
usemtl m78.003
f 46/31/22 23/32/25 22/33/26
usemtl m56.003
f 36/34/27 26/35/24 44/36/28
usemtl m19.003
f 10/37/29 18/38/30 19/39/31
usemtl m17.003
f 9/40/1 17/41/32 10/42/29
usemtl m10.003
f 9/43/1 10/44/29 11/45/33
usemtl m55.003
f 43/46/20 26/47/24 36/48/27
usemtl m51.003
f 40/49/34 41/50/35 42/51/21
usemtl m16.003
f 9/52/1 16/53/15 17/54/32
usemtl m4.003
f 1/55/13 6/56/14 7/57/36
usemtl m5.003
f 1/58/13 7/59/36 2/60/37
usemtl m42.003
f 18/61/30 33/62/19 34/63/18
usemtl m58.003
f 37/64/5 44/65/28 45/66/38
usemtl m18.003
f 10/67/29 17/68/32 18/69/30
usemtl m69.003
f 41/70/35 30/71/39 42/72/21
usemtl m79.003
f 46/73/22 22/74/26 47/75/23
usemtl m75.003
f 44/76/28 24/77/40 45/78/38
usemtl m60.003
f 37/79/5 46/80/22 38/81/6
usemtl m21.003
f 10/82/29 20/83/41 11/84/33
usemtl m26.003
f 13/85/3 23/86/25 24/87/40
usemtl m43.003
f 18/88/30 34/89/18 22/90/26
usemtl m70.003
f 42/91/21 30/92/39 29/93/16
usemtl m30.003
f 14/94/10 26/95/24 27/96/11
usemtl m33.003
f 15/97/42 28/98/12 27/99/11
usemtl m14.003
f 9/100/1 14/101/10 15/102/42
usemtl m24.003
f 13/103/3 19/104/31 22/105/26
usemtl m52.003
f 40/106/34 42/107/21 43/108/20
usemtl m34.003
f 15/109/42 27/110/11 16/111/15
usemtl m80.003
f 47/112/23 22/113/26 34/114/18
usemtl m20.003
f 10/115/29 19/116/31 20/117/41
usemtl m23.003
f 13/118/3 21/119/43 19/120/31
usemtl m76.003
f 45/121/38 24/122/40 23/123/25
usemtl m66.003
f 39/124/17 32/125/44 41/126/35
usemtl m73.003
f 44/127/28 26/128/24 25/129/45
usemtl m7.003
f 8/130/7 3/131/46 2/132/37
usemtl m6.003
f 8/133/7 4/134/9 3/135/46
usemtl m71.003
f 42/136/21 29/137/16 27/138/11
usemtl m32.003
f 14/139/10 28/140/12 15/141/42
usemtl m77.003
f 45/142/38 23/143/25 46/144/22
usemtl m62.003
f 38/145/6 47/146/23 34/147/18
usemtl m40.003
f 17/148/32 32/149/44 18/150/30
usemtl m45.003
f 19/151/31 21/152/43 20/153/41
usemtl m50.003
f 40/154/34 39/155/17 41/156/35
usemtl m41.003
f 18/157/30 32/158/44 33/159/19
usemtl m0.003
f 1/160/13 2/161/37 3/162/46
usemtl m39.003
f 17/163/32 31/164/47 32/165/44
usemtl m46.003
f 35/166/4 36/167/27 37/168/5
usemtl m28.003
f 14/169/10 24/170/40 25/171/45
usemtl m15.003
f 9/172/1 15/173/42 16/174/15
usemtl m65.003
f 39/175/17 33/176/19 32/177/44
usemtl m1.003
f 1/178/13 3/179/46 4/180/9
usemtl m29.003
f 14/181/10 25/182/45 26/183/24
usemtl m67.003
f 41/184/35 32/185/44 31/186/47
usemtl m13.003
f 9/187/1 13/188/3 14/189/10
usemtl m25.003
f 13/190/3 22/191/26 23/192/25
usemtl m63.003
f 38/193/6 34/194/18 39/195/17
usemtl m48.003
f 35/196/4 38/197/6 39/198/17
usemtl m27.003
f 13/199/3 24/200/40 14/201/10
usemtl m22.003
f 13/202/3 12/203/2 21/204/43
usemtl m36.003
f 16/205/15 29/206/16 30/207/39
usemtl m74.003
f 44/208/28 25/209/45 24/210/40
usemtl m68.003
f 41/211/35 31/212/47 30/213/39
usemtl m11.003
f 9/214/1 11/215/33 12/216/2
usemtl m49.003
f 35/217/4 39/218/17 40/219/34
usemtl m38.003
f 17/220/32 30/221/39 31/222/47
usemtl m37.003
f 16/223/15 30/224/39 17/225/32
usemtl m44.003
f 18/226/30 22/227/26 19/228/31
usemtl m2.003
f 1/229/13 4/230/9 5/231/8
usemtl m57.003
f 36/232/27 44/233/28 37/234/5
usemtl m59.003
f 37/235/5 45/236/38 46/237/22
usemtl m8.003
f 8/238/7 6/239/14 5/240/8
