# Blender v2.79 (sub 0) OBJ File: 'NPC_new.blend'
# www.blender.org
mtllib NPC_leg_bottom_left.mtl
o runescapemodel.007_runescapemodel.009
v -0.068662 0.066467 -0.168763
v -0.093712 -0.033736 0.081744
v 0.081643 -0.033736 0.081744
v 0.081643 0.066467 -0.168763
v -0.093712 -1.511732 -0.193814
v 0.181846 -1.511732 -0.193814
v 0.206897 -1.511732 0.232049
v -0.068662 -1.511732 0.232049
v -0.068662 -1.336376 -0.018459
v -0.093712 -1.411529 -0.218865
v 0.181846 -1.411529 -0.218865
v 0.181846 -1.336376 -0.018459
v 0.206897 -1.386478 0.232049
v 0.056592 -1.286275 0.407404
v -0.068662 -1.386478 0.232049
v -0.043611 -1.186072 0.006592
v -0.068662 -1.311326 -0.168764
v 0.181846 -1.311326 -0.168764
v 0.131745 -1.186072 0.006592
v -0.143814 -0.334346 0.156897
v -0.168865 -0.509701 -0.268966
v 0.181846 -0.509701 -0.268966
v 0.181846 -0.334346 0.156897
v 0.081643 -0.284244 0.056694
v -0.068662 -0.284244 0.056694
v -0.093712 -0.334346 -0.193814
v 0.131745 -0.334346 -0.193814
v -0.068662 -1.511732 -0.018459
vt 0.180218 0.003200
vt 0.180218 0.180218
vt 0.003200 0.180218
vt 0.910691 0.178618
vt 0.951345 0.001600
vt 0.910691 0.001600
vt 0.821382 0.543855
vt 0.907491 0.366836
vt 0.907491 0.543855
vt 0.912291 0.362036
vt 0.998400 0.275927
vt 0.998400 0.362036
vt 0.183418 0.996800
vt 0.183418 0.910691
vt 0.269527 0.910691
vt 0.912291 0.452945
vt 0.998400 0.366836
vt 0.998400 0.452945
vt 0.362036 0.821382
vt 0.185018 0.907491
vt 0.362036 0.907491
vt 0.907491 0.548655
vt 0.907491 0.725673
vt 0.821382 0.725673
vt 0.957745 0.180218
vt 0.998400 0.094109
vt 0.998400 0.180218
vt 0.912291 0.543855
vt 0.952945 0.543855
vt 0.952945 0.457745
vt 0.816582 0.816582
vt 0.816582 0.730473
vt 0.730473 0.816582
vt 0.816582 0.957745
vt 0.730473 0.998400
vt 0.816582 0.998400
vt 0.998400 0.634764
vt 0.957745 0.634764
vt 0.998400 0.548655
vt 0.639564 0.998400
vt 0.725673 0.957745
vt 0.725673 0.998400
vt 0.634764 0.998400
vt 0.548655 0.998400
vt 0.634764 0.957745
vt 0.957745 0.907491
vt 0.998400 0.907491
vt 0.998400 0.821382
vt 0.998400 0.543855
vt 0.957745 0.543855
vt 0.998400 0.457745
vt 0.634764 0.912291
vt 0.548655 0.952945
vt 0.634764 0.952945
vt 0.910691 0.183418
vt 0.996800 0.183418
vt 0.910691 0.269527
vt 0.634764 0.366836
vt 0.548655 0.543855
vt 0.634764 0.543855
vt 0.907491 0.912291
vt 0.821382 0.952945
vt 0.907491 0.952945
vt 0.003200 0.998400
vt 0.089309 0.912291
vt 0.089309 0.998400
vt 0.821382 0.907491
vt 0.862036 0.907491
vt 0.862036 0.730473
vt 0.725673 0.639564
vt 0.725673 0.725673
vt 0.548655 0.725673
vt 0.957745 0.725673
vt 0.998400 0.725673
vt 0.998400 0.639564
vt 0.543855 0.907491
vt 0.543855 0.821382
vt 0.366836 0.907491
vt 0.366836 0.998400
vt 0.452945 0.998400
vt 0.452945 0.912291
vt 0.543855 0.912291
vt 0.457745 0.952945
vt 0.543855 0.952945
vt 0.178618 0.910691
vt 0.092509 0.996800
vt 0.092509 0.910691
vt 0.543855 0.730473
vt 0.543855 0.816582
vt 0.366836 0.816582
vt 0.907491 0.957745
vt 0.907491 0.998400
vt 0.821382 0.998400
vt 0.912291 0.952945
vt 0.952945 0.912291
vt 0.952945 0.952945
vt 0.912291 0.725673
vt 0.952945 0.639564
vt 0.952945 0.725673
vt 0.957745 0.089309
vt 0.998400 0.089309
vt 0.998400 0.003200
vt 0.724073 0.728873
vt 0.547055 0.728873
vt 0.547055 0.814982
vt 0.725673 0.912291
vt 0.639564 0.952945
vt 0.725673 0.952945
vt 0.905891 0.183418
vt 0.819782 0.360436
vt 0.819782 0.183418
vt 0.912291 0.634764
vt 0.952945 0.634764
vt 0.952945 0.548655
vt 0.725673 0.548655
vt 0.725673 0.634764
vt 0.548655 0.634764
vt 0.275927 0.998400
vt 0.362036 0.912291
vt 0.362036 0.998400
vt 0.543855 0.185018
vt 0.543855 0.362036
vt 0.366836 0.362036
vt 0.816582 0.912291
vt 0.730473 0.952945
vt 0.816582 0.952945
vt 0.998400 0.730473
vt 0.957745 0.816582
vt 0.998400 0.816582
vt 0.543855 0.003200
vt 0.366836 0.180218
vt 0.543855 0.180218
vt 0.730473 0.907491
vt 0.816582 0.821382
vt 0.816582 0.907491
vt 0.543855 0.957745
vt 0.543855 0.998400
vt 0.457745 0.998400
vt 0.728873 0.542255
vt 0.814982 0.365236
vt 0.728873 0.365236
vt 0.907491 0.180218
vt 0.907491 0.003200
vt 0.821382 0.180218
vt 0.866836 0.907491
vt 0.952945 0.907491
vt 0.952945 0.821382
vt 0.183418 0.814982
vt 0.183418 0.728873
vt 0.360436 0.728873
vn 0.6081 -0.0806 0.7898
vn 0.6779 0.1294 -0.7237
vn 0.6337 0.4258 0.6458
vn -0.6407 0.4209 0.6421
vn 0.5275 0.6959 0.4874
vn -0.7277 0.2400 -0.6426
vn 0.8991 0.0062 -0.4378
vn -0.6251 -0.6224 -0.4710
vn -0.7052 -0.7089 0.0161
vn -0.8668 0.3339 0.3704
vn 0.7626 -0.0644 0.6437
vn -0.7840 -0.0584 0.6180
vn -0.7227 0.1301 -0.6788
vn -0.6828 0.5587 0.4708
vn -0.6715 0.3410 -0.6578
vn 0.6594 0.3871 -0.6445
vn 0.3681 -0.4054 0.8368
vn 0.7927 0.4262 0.4359
vn -0.0360 0.6491 0.7598
vn -0.8286 0.4477 0.3361
vn 0.7261 -0.6849 -0.0610
vn 0.8740 0.4304 0.2255
vn 0.7718 0.6340 0.0496
vn -0.6161 -0.1386 0.7753
vn -0.6833 0.1202 -0.7202
vn 0.6455 0.1067 -0.7563
vn 0.5852 -0.6334 -0.5063
vn -0.3755 -0.4300 0.8210
vn 0.6179 0.0878 -0.7814
vn 0.0000 -0.0000 1.0000
vn -0.5832 0.0869 -0.8077
vn -0.7476 0.6512 0.1302
usemtl m53.002
s 1
f 19/1/1 22/2/2 23/3/3
usemtl m55.002
f 20/4/4 23/5/3 24/6/5
usemtl m51.002
f 17/7/6 22/8/2 18/9/7
usemtl m26.002
f 5/10/8 8/11/9 9/12/10
usemtl m65.002
f 24/13/5 3/14/11 2/15/12
usemtl m58.002
f 21/16/13 25/17/14 26/18/15
usemtl m52.002
f 18/19/7 22/20/2 19/21/1
usemtl m54.002
f 19/22/1 23/23/3 20/24/4
usemtl m62.002
f 23/25/3 27/26/16 24/27/5
usemtl m33.002
f 7/28/17 13/29/18 14/30/19
usemtl m71.002
f 14/31/19 13/32/18 15/33/20
usemtl m32.002
f 7/34/21 12/35/22 13/36/23
usemtl m40.002
f 9/37/10 16/38/24 10/39/25
usemtl m45.002
f 11/40/26 19/41/1 12/42/22
usemtl m39.002
f 9/43/10 12/44/22 16/45/24
usemtl m46.002
f 12/46/22 19/47/1 16/48/24
usemtl m28.002
f 5/49/8 10/50/25 6/51/27
usemtl m29.002
f 6/52/27 10/53/25 11/54/26
usemtl m67.002
f 25/55/14 2/56/12 26/57/15
usemtl m25.002
f 5/58/8 7/59/21 8/60/9
usemtl m27.002
f 5/61/8 9/62/10 10/63/25
usemtl m38.002
f 9/64/10 13/65/23 12/66/22
usemtl m57.002
f 20/67/4 25/68/14 21/69/13
usemtl m59.002
f 21/70/13 26/71/15 22/72/2
usemtl m44.002
f 11/73/26 18/74/7 19/75/1
usemtl m47.002
f 16/76/24 19/77/1 20/78/4
usemtl m31.002
f 6/79/27 12/80/22 7/81/21
usemtl m35.002
f 8/82/28 14/83/19 15/84/20
usemtl m64.002
f 24/85/5 4/86/29 3/87/11
usemtl m61.002
f 22/88/2 27/89/16 23/90/3
usemtl m72.002
f 7/91/30 13/92/30 15/93/30
usemtl m56.002
f 20/94/4 24/95/5 25/96/14
usemtl m66.002
f 24/97/5 2/98/12 25/99/14
usemtl m42.002
f 10/100/25 17/101/6 11/102/26
usemtl m69.002
f 26/103/15 1/104/31 4/105/29
usemtl m43.002
f 11/106/26 17/107/6 18/108/7
usemtl m70.002
f 26/109/15 4/110/29 27/111/16
usemtl m30.002
f 6/112/27 11/113/26 12/114/22
usemtl m24.002
f 5/115/8 6/116/27 7/117/21
usemtl m34.002
f 7/118/17 14/119/19 8/120/28
usemtl m50.002
f 17/121/6 21/122/13 22/123/2
usemtl m41.002
f 10/124/25 16/125/24 17/126/6
usemtl m73.002
f 7/127/30 15/128/30 8/129/30
usemtl m48.002
f 16/130/24 20/131/4 21/132/13
usemtl m60.002
f 22/133/2 26/134/15 27/135/16
usemtl m36.002
f 8/136/9 15/137/32 9/138/10
usemtl m68.002
f 26/139/15 2/140/12 1/141/31
usemtl m49.002
f 16/142/24 21/143/13 17/144/6
usemtl m37.002
f 9/145/10 15/146/32 13/147/23
usemtl m63.002
f 24/148/5 27/149/16 4/150/29
