# Blender v2.79 (sub 0) OBJ File: 'NPC_new.blend'
# www.blender.org
mtllib NPC_arm_right_bottom.mtl
o runescapemodel.009_runescapemodel.011
v -0.089401 -0.076423 0.049237
v -0.089401 -0.076423 -0.050966
v -0.039299 -0.502286 -0.000865
v 0.111005 -0.076423 0.124389
v 0.111005 -0.076423 -0.126119
v 0.035853 -0.502286 -0.076017
v 0.035853 -0.502286 0.049237
v 0.060904 -0.001271 -0.101068
v 0.060904 -0.001271 0.074288
v -0.064350 -0.001271 0.024186
v -0.064350 -0.001271 -0.025915
v -0.039299 -0.502286 0.024186
v -0.039299 -0.502286 -0.025916
v -0.039299 -0.552388 0.049237
v 0.035853 -0.552388 0.049237
v 0.035853 -0.552388 -0.050966
v -0.039299 -0.552388 -0.050966
v -0.114451 -0.702693 -0.076017
v -0.114451 -0.727743 0.099338
v 0.060904 -0.727743 0.099338
v 0.060904 -0.702693 -0.076017
v -0.014248 -0.777845 -0.050966
v -0.064350 -0.752794 -0.050966
v -0.064350 -0.752794 0.049237
v -0.014248 -0.777845 0.049237
vt 0.937976 0.825129
vt 0.825129 0.825129
vt 0.825129 0.879153
vt 0.707482 0.349741
vt 0.707482 0.236894
vt 0.820329 0.236894
vt 0.236894 0.883953
vt 0.349741 0.883953
vt 0.236894 0.937976
vt 0.996800 0.119247
vt 0.942776 0.232094
vt 0.942776 0.119247
vt 0.996800 0.472188
vt 0.942776 0.472188
vt 0.942776 0.526212
vt 0.879153 0.707482
vt 0.825129 0.707482
vt 0.825129 0.820329
vt 0.825129 0.585035
vt 0.879153 0.472188
vt 0.825129 0.472188
vt 0.001600 0.996800
vt 0.114447 0.942776
vt 0.001600 0.942776
vt 0.942776 0.643859
vt 0.967388 0.589835
vt 0.942776 0.589835
vt 0.942776 0.349741
vt 0.942776 0.236894
vt 0.996800 0.236894
vt 0.820329 0.589835
vt 0.766306 0.589835
vt 0.766306 0.820329
vt 0.349741 0.942776
vt 0.295718 0.996800
vt 0.295718 0.942776
vt 0.467388 0.825129
vt 0.236894 0.879153
vt 0.236894 0.825129
vt 0.702682 0.825129
vt 0.472188 0.879153
vt 0.472188 0.825129
vt 0.825129 0.937976
vt 0.937976 0.883953
vt 0.825129 0.883953
vt 0.119247 0.996800
vt 0.119247 0.942776
vt 0.232094 0.942776
vt 0.349741 0.472188
vt 0.236894 0.472188
vt 0.236894 0.702682
vt 0.413365 0.996800
vt 0.467388 0.942776
vt 0.413365 0.942776
vt 0.996800 0.001600
vt 0.942776 0.114447
vt 0.942776 0.001600
vt 0.942776 0.585035
vt 0.942776 0.531012
vt 0.967388 0.531012
vt 0.585035 0.236894
vt 0.472188 0.236894
vt 0.472188 0.467388
vt 0.643859 0.942776
vt 0.589835 0.942776
vt 0.589835 0.967388
vt 0.761506 0.589835
vt 0.707482 0.589835
vt 0.707482 0.820329
vt 0.944376 0.233694
vt 0.998400 0.120847
vt 0.998400 0.233694
vt 0.236894 0.236894
vt 0.236894 0.467388
vt 0.467388 0.236894
vt 0.937976 0.707482
vt 0.883953 0.707482
vt 0.883953 0.820329
vt 0.702682 0.942776
vt 0.648659 0.942776
vt 0.648659 0.967388
vt 0.001600 0.820329
vt 0.001600 0.707482
vt 0.232094 0.707482
vt 0.942776 0.408565
vt 0.996800 0.354541
vt 0.942776 0.354541
vt 0.937976 0.589835
vt 0.883953 0.702682
vt 0.883953 0.589835
vt 0.707482 0.883953
vt 0.707482 0.937976
vt 0.820329 0.883953
vt 0.942776 0.413365
vt 0.996800 0.413365
vt 0.942776 0.467388
vt 0.821929 0.238494
vt 0.709082 0.351341
vt 0.821929 0.351341
vt 0.826729 0.821929
vt 0.880753 0.821929
vt 0.880753 0.709082
vt 0.820329 0.472188
vt 0.707482 0.472188
vt 0.707482 0.585035
vt 0.236894 0.942776
vt 0.236894 0.996800
vt 0.290918 0.942776
vt 0.968988 0.532612
vt 0.944376 0.586635
vt 0.968988 0.586635
vt 0.820329 0.354541
vt 0.707482 0.467388
vt 0.707482 0.354541
vt 0.354541 0.472188
vt 0.585035 0.472188
vt 0.354541 0.585035
vt 0.967388 0.648659
vt 0.942776 0.702682
vt 0.942776 0.648659
vn -0.7086 -0.2694 0.6522
vn 0.0924 -0.9689 0.2295
vn 0.6754 -0.3206 0.6641
vn -0.4286 0.7505 0.5031
vn 0.5430 0.6836 0.4877
vn 0.5346 0.6605 -0.5272
vn -0.7456 -0.1261 -0.6544
vn -0.4182 0.7271 -0.5444
vn 0.0000 -1.0000 0.0000
vn 0.0000 1.0000 0.0000
vn -0.7333 0.4221 -0.5331
vn -0.7708 0.4174 0.4813
vn -0.7931 0.3661 -0.4868
vn 0.7069 -0.2229 -0.6713
vn -0.3926 -0.7578 -0.5212
vn -0.8056 -0.1618 0.5700
vn -0.8283 -0.1089 -0.5495
vn -0.7613 -0.6398 0.1047
vn -0.4472 -0.8944 -0.0000
vn 0.4414 0.6826 0.5825
vn 0.4883 0.6223 -0.6118
vn 0.1866 0.4204 -0.8880
vn 0.2812 -0.6618 -0.6950
vn -0.7390 0.4152 0.5306
vn 0.3328 0.6723 0.6612
vn 0.1023 -0.8558 -0.5070
vn 0.5863 -0.1959 -0.7861
vn 0.3304 -0.6365 0.6969
vn 0.5533 -0.2720 0.7873
usemtl m119
s 1
f 19/1/1 25/2/2 20/3/3
usemtl m108
f 14/4/4 19/5/1 20/6/3
usemtl m110
f 15/7/5 20/8/3 16/9/6
usemtl m113
f 16/10/6 18/11/7 17/12/8
usemtl m104
f 14/13/4 15/14/5 16/15/6
usemtl m106
f 14/16/4 17/17/8 18/18/7
usemtl m101
f 6/19/9 7/20/9 12/21/9
usemtl m65
f 1/22/10 5/23/10 2/24/10
usemtl m76
f 2/25/11 10/26/12 11/27/13
usemtl m115
f 21/28/14 23/29/15 18/30/7
usemtl m62
f 1/31/16 2/32/17 3/33/18
usemtl m117
f 19/34/1 23/35/15 24/36/19
usemtl m71
f 4/37/20 5/38/21 8/39/22
usemtl m67
f 2/40/17 6/41/23 3/42/18
usemtl m74
f 1/43/24 9/44/25 10/45/12
usemtl m116
f 18/46/7 23/47/15 19/48/1
usemtl m64
f 1/49/10 4/50/10 5/51/10
usemtl m121
f 21/52/14 25/53/2 22/54/26
usemtl m72
f 4/55/20 8/56/22 9/57/25
usemtl m118
f 19/58/1 24/59/19 25/60/2
usemtl m66
f 2/61/17 5/62/27 6/63/23
usemtl m114
f 21/64/14 22/65/26 23/66/15
usemtl m69
f 3/67/18 7/68/28 4/69/29
usemtl m109
f 14/70/4 20/71/3 15/72/5
usemtl m70
f 4/73/29 7/74/28 5/75/27
usemtl m120
f 20/76/3 25/77/2 21/78/14
usemtl m122
f 22/79/26 25/80/2 24/81/19
usemtl m103
f 7/82/28 6/83/23 5/84/27
usemtl m105
f 14/85/4 16/86/6 17/87/8
usemtl m78
f 5/88/21 11/89/13 8/90/22
usemtl m77
f 2/91/11 11/92/13 5/93/21
usemtl m75
f 1/94/24 10/95/12 2/96/11
usemtl m107
f 14/97/4 18/98/7 19/99/1
usemtl m73
f 4/100/20 9/101/25 1/102/24
usemtl m112
f 16/103/6 21/104/14 18/105/7
usemtl m68
f 3/106/18 6/107/23 7/108/28
usemtl m102
f 6/109/9 12/110/9 13/111/9
usemtl m111
f 16/112/6 20/113/3 21/114/14
usemtl m63
f 1/115/16 3/116/18 4/117/29
usemtl m123
f 22/118/26 24/119/19 23/120/15
