# Blender v2.79 (sub 0) OBJ File: 'NPC_new.blend'
# www.blender.org
mtllib NPC_leg_top_left.mtl
o runescapemodel.004
v 0.010000 -0.778575 -0.168763
v -0.015051 -0.878778 0.081744
v 0.160305 -0.878778 0.081744
v 0.110203 0.148304 0.031643
v 0.160305 -0.077153 -0.319068
v 0.160305 -0.778575 -0.168763
v -0.165355 0.173354 0.181948
v -0.147757 -0.001414 -0.316765
v -0.147371 -0.001563 0.132563
vt 0.952945 0.003200
vt 0.952945 0.180218
vt 0.912291 0.180218
vt 0.728873 0.360436
vt 0.814982 0.183418
vt 0.728873 0.183418
vt 0.637964 0.542255
vt 0.637964 0.365236
vt 0.724073 0.365236
vt 0.365236 0.637964
vt 0.542255 0.637964
vt 0.365236 0.724073
vt 0.725673 0.180218
vt 0.725673 0.003200
vt 0.548655 0.180218
vt 0.360436 0.183418
vt 0.183418 0.183418
vt 0.183418 0.360436
vt 0.178618 0.183418
vt 0.001600 0.360436
vt 0.001600 0.183418
vt 0.003200 0.816582
vt 0.180218 0.816582
vt 0.180218 0.730473
vn 0.7507 -0.1106 -0.6513
vn 0.8091 -0.1231 -0.5747
vn -0.7076 -0.2342 -0.6667
vn 0.6219 -0.0150 0.7830
vn -0.4555 -0.0932 0.8853
vn -0.6254 -0.1388 0.7679
vn 0.7721 0.0685 0.6318
vn -0.7587 -0.2672 -0.5942
usemtl m13.002
s 1
f 5/1/1 6/2/2 1/3/3
usemtl m12.002
f 5/4/1 3/5/4 6/6/2
usemtl m9.002
f 9/7/5 2/8/6 3/9/4
usemtl m10.002
f 9/10/5 3/11/4 4/12/7
usemtl m14.002
f 5/13/1 1/14/3 8/15/8
usemtl m7.002
f 9/16/5 8/17/8 1/18/3
usemtl m11.002
f 4/19/7 3/20/4 5/21/1
usemtl m8.002
f 9/22/5 1/23/3 2/24/6
