# Blender v2.79 (sub 0) OBJ File: 'NPC_COORDS.blend'
# www.blender.org
mtllib weapon_godsword.mtl
o runescapemodel.006
v 0.362613 0.278870 -0.065255
v 0.386949 0.192894 -0.028827
v 0.349163 0.190890 -0.027978
v 0.500305 0.198909 -0.031375
v 0.398221 0.315666 -0.080846
v 0.376062 0.366851 -0.102533
v 0.411670 0.403647 -0.118123
v 0.493773 0.303282 -0.075599
v 0.429474 0.422045 -0.125918
v 0.389512 0.454831 -0.139810
v 0.345195 0.557200 -0.183184
v 0.347372 0.522409 -0.168443
v 0.442924 0.510025 -0.163196
v 0.505045 0.426054 -0.127617
v 0.308815 -0.073052 0.083855
v 0.397835 0.018938 0.044879
v 0.262320 0.064108 0.025740
v 0.266675 -0.005474 0.055222
v 0.219794 -0.133720 0.196757
v 0.370936 -0.125701 0.193360
v 0.402189 -0.040204 0.099003
v 0.408721 -0.113255 0.217152
v 0.675396 -0.134013 0.225947
v 0.668864 -0.060962 0.107798
v 0.975502 -0.114506 0.130485
v 0.959875 -0.157255 0.177663
v 1.093212 -0.125871 0.280629
v 1.046718 -0.040914 0.099304
v 1.177878 -0.016502 0.088960
v 1.244354 -0.117852 0.277231
v 1.339906 -0.182440 0.159268
v 1.215663 -0.014498 0.088111
v 1.144833 0.208639 -0.006432
v 1.229113 0.073483 0.050833
v 1.251271 0.022298 0.072520
v 1.329019 -0.008483 0.085563
v 0.486855 0.110928 0.005902
v 0.195845 0.217662 -0.039321
v 0.227098 0.324041 -0.084394
v 0.071602 0.385604 -0.110478
v 0.078134 0.281230 -0.066255
v -0.037399 0.310007 -0.078448
v -0.013064 0.224032 -0.042020
v -0.142046 0.164828 -0.016935
v -0.022159 0.066468 0.024740
v -0.160236 -0.129416 0.165868
v 0.228503 -0.304207 0.181796
v 0.299720 -0.230615 0.150615
v 0.381822 -0.330979 0.193139
v 0.415253 -0.248951 0.187450
v 0.661946 -0.253316 0.189299
v 0.962052 -0.202487 0.167763
v 1.044155 -0.302851 0.210287
v 1.177492 -0.313230 0.214685
v 1.217455 -0.346017 0.228576
v 1.313007 -0.358401 0.233823
v 1.348615 -0.321605 0.218233
v 1.446344 -0.368780 0.238221
v 0.004355 -0.054299 0.075909
v -0.204554 -0.047929 0.073210
v -0.464697 -0.110663 0.157923
v -0.211471 -0.240283 0.154711
v -0.002563 -0.246653 0.157410
v 0.269624 0.553191 -0.181485
v 0.289605 0.536798 -0.174539
v 0.180604 0.461201 -0.142509
v -0.553717 -0.223535 0.147615
v -0.824746 -0.112312 0.158621
v -0.733935 -0.372724 0.210827
v -0.762625 -0.217165 0.144916
v 0.328024 -0.682902 0.342249
v 0.341474 -0.594921 0.304972
v 0.361455 -0.611314 0.311918
v 0.350183 -0.734086 0.363936
v 0.470456 -0.535718 0.279887
v 0.354923 -0.506941 0.267694
v 0.317138 -0.508945 0.268544
v 0.270643 -0.371785 0.210429
v 0.148192 -0.535362 0.279737
v 0.210313 -0.619333 0.315315
v 0.043545 -0.680542 0.341250
v 0.037013 -0.576168 0.297026
v -0.074165 -0.616973 0.314316
v -0.042912 -0.510595 0.269243
v -0.178426 -0.465424 0.250104
v -0.013835 -0.369425 0.209429
v 0.463925 -0.431344 0.235664
v 0.476988 -0.640091 0.324111
v 0.370164 -0.750479 0.370882
v 0.352360 -0.768878 0.378678
v 0.374519 -0.820062 0.400365
v 0.465716 -0.762863 0.376129
v 0.298948 -0.824072 0.402063
v 0.301125 -0.858863 0.416804
v 0.243358 -0.844474 0.410708
v 0.225554 -0.862872 0.418503
v 0.143452 -0.762508 0.375979
v -0.373885 -0.371074 0.210128
v -0.420379 -0.233914 0.152013
v -0.546799 -0.031180 0.066114
v -0.413462 -0.041559 0.070512
v -0.366581 0.118008 0.002903
v -0.708827 0.134757 -0.004194
v -0.755707 -0.024811 0.063415
v -0.906849 -0.032830 0.066813
v -1.149188 -0.077166 0.143730
v -0.913766 -0.225184 0.148314
v -1.024559 0.030739 0.039879
v -1.173523 -0.012072 0.058018
v -1.889268 -0.064071 0.138182
v -1.180441 -0.204426 0.139519
v -1.044927 -0.249596 0.158657
v -1.133175 0.251870 -0.053815
v -1.228727 0.264254 -0.059062
v -1.090649 0.481020 -0.150906
v -1.048509 0.413443 -0.122273
v -0.806170 0.478660 -0.149906
v -1.993529 0.066596 0.024686
v -2.307084 -0.072214 0.083500
v -1.993915 -0.230132 0.150411
v -1.258575 -0.470372 0.252201
v -1.163023 -0.482756 0.257448
v -1.129978 -0.707897 0.352840
v -1.076566 -0.652703 0.329455
v -0.896734 -0.800243 0.391967
v 1.533187 -0.241999 0.184503
v 1.419831 -0.248013 0.187052
v 1.453262 -0.165985 0.181362
v 1.526655 -0.137625 0.140280
v 1.411122 -0.108848 0.128087
v 1.349001 -0.024877 0.092509
v 1.219632 -0.380808 0.243318
v 1.204005 -0.433998 0.265854
v 1.321716 -0.497566 0.292788
v 1.117162 -0.560779 0.319571
v 1.568795 -0.205203 0.168913
v 1.650898 -0.295126 0.236079
v 1.822020 -0.313941 0.214986
v 1.697392 -0.442727 0.269553
v 1.719937 -0.186743 0.190157
v 1.837647 -0.260752 0.192449
v 1.871078 -0.189165 0.162118
v 1.866723 -0.119582 0.132635
v 1.584422 -0.152013 0.146377
v 1.673442 -0.049582 0.132042
v 1.844565 -0.068398 0.110948
v 1.722500 0.064753 0.054532
v 1.358096 0.132686 0.025749
v 1.460179 0.015929 0.075219
vn -0.0000 -0.3901 -0.9208
vn -0.0240 0.0018 0.9997
vn -0.1550 0.5195 0.8403
vn -0.0383 0.2898 0.9563
vn 0.0763 0.8500 0.5213
vn 0.0835 0.3384 0.9373
vn -0.2902 0.7702 0.5679
vn 0.0529 0.6878 0.7240
vn 0.0006 0.3980 0.9174
vn 0.0392 0.7725 0.6337
vn 0.2836 0.3524 0.8918
vn 0.0000 0.3901 0.9208
vn -0.9704 0.2380 -0.0397
vn -0.8018 -0.5105 0.3107
vn 0.9519 -0.2936 0.0881
vn -0.0232 0.3698 0.9288
vn -0.0949 0.8427 0.5300
vn 0.0632 0.6898 0.7213
vn 0.0238 0.0103 0.9997
vn -0.1458 -0.2649 0.9532
vn -0.0379 0.3067 0.9511
vn 0.1217 0.2235 0.9671
vn 0.1757 0.3600 0.9162
vn -0.2388 0.3142 0.9189
vn 0.1000 0.3892 0.9157
vn -0.0653 0.4686 0.8810
vn -0.0412 0.3598 0.9321
vn -0.8815 0.2907 -0.3721
vn 0.0531 0.7329 0.6783
vn 0.0043 0.6889 0.7249
vn 0.0558 0.3397 0.9389
vn -0.3781 0.3415 0.8605
vn 0.1642 0.7464 0.6449
vn 0.2715 0.9130 -0.3043
vn -0.0160 -0.0151 0.9998
vn 0.0187 0.5801 0.8144
vn -0.0080 0.5528 0.8333
vn 0.0732 0.6802 0.7293
vn -0.2737 0.3357 0.9013
vn 0.4561 0.3549 0.8161
vn 0.2248 0.4857 -0.8447
vn 0.0493 -0.8919 0.4495
vn -0.1742 -0.9767 0.1252
vn 0.0745 0.5386 0.8392
vn 0.9108 0.3461 -0.2250
vn -0.0657 0.2928 0.9539
vn 0.0327 -0.1034 0.9941
vn 0.0721 0.1375 0.9879
vn 0.0461 -0.2981 0.9534
vn -0.3002 -0.2120 0.9300
vn -0.0241 0.4290 0.9030
vn -0.0585 0.3928 0.9177
vn 0.1528 0.3563 0.9218
vn 0.0202 0.5551 0.8316
vn 0.0434 0.5562 0.8299
vn 0.1349 0.2398 0.9614
vn 0.1143 -0.1062 0.9878
vn -0.2726 0.3884 0.8803
vn 0.0010 0.6600 0.7512
vn -0.0643 0.3942 0.9168
vn 0.1555 0.4037 0.9016
vn -0.0260 0.3911 0.9200
vn -0.0492 0.1122 0.9925
vn -0.0436 0.6821 0.7300
vn 0.0023 0.1998 0.9798
vn 0.0100 0.2241 0.9745
vn 0.8812 -0.0602 0.4689
vn -0.0061 -0.0281 0.9996
vn 0.0304 0.0079 0.9995
vn -0.0268 0.1875 0.9819
vn -0.1269 0.3903 0.9119
vn -0.0785 0.1223 0.9894
vn 0.0720 0.9178 -0.3905
vn -0.3165 -0.2733 0.9084
vn -0.3119 0.8271 0.4675
vn 0.9408 0.3363 0.0411
vn -0.8596 -0.4906 -0.1431
vn 0.1149 0.4892 0.8645
vn 0.1532 0.5086 0.8472
vn -0.0624 0.6256 0.7776
vn -0.0377 -0.0614 0.9974
usemtl m176.003
s 1
f 132//1 134//1 133//1
usemtl m191.002
f 136//2 128//3 126//4
usemtl m26.006
f 24//5 23//6 25//7
usemtl m129.004
f 100//8 61//9 101//10
usemtl m70.006
f 31//11 55//12 56//12
usemtl m117.005
f 94//13 93//14 95//15
usemtl m76.006
f 46//16 59//17 60//18
usemtl m79.006
f 46//16 62//19 63//20
usemtl m186.003
f 140//21 141//22 142//23
usemtl m190.002
f 140//21 128//3 136//2
usemtl m27.006
f 25//7 23//6 26//24
usemtl m78.006
f 46//16 61//25 62//19
usemtl m85.005
f 65//12 64//12 66//12
usemtl m42.006
f 2//12 17//12 16//26
usemtl m134.004
f 68//27 104//28 105//29
usemtl m20.005
f 15//30 19//31 20//32
usemtl m22.006
f 16//26 20//32 21//33
usemtl m120.005
f 93//14 96//34 95//15
usemtl m56.006
f 19//31 48//35 20//32
usemtl m46.006
f 38//12 3//12 39//12
usemtl m171.003
f 31//1 36//1 131//1
usemtl m10.005
f 7//12 9//12 10//12
usemtl m189.002
f 140//21 144//36 128//3
usemtl m132.004
f 100//8 103//37 68//27
usemtl m101.005
f 80//12 79//12 81//12
usemtl m96.005
f 72//12 75//12 76//12
usemtl m31.006
f 29//38 27//39 30//40
usemtl m92.005
f 71//1 73//1 74//1
usemtl m43.006
f 2//12 16//26 37//12
usemtl m83.005
f 12//41 65//42 64//43
usemtl m75.006
f 18//44 59//17 46//16
usemtl m156.003
f 122//12 121//12 123//12
usemtl m17.005
f 15//30 16//26 17//12
usemtl m199.001
f 36//12 32//12 31//11
usemtl m106.005
f 85//12 84//12 86//12
usemtl m12.005
f 11//1 10//12 12//45
usemtl m147.003
f 113//12 115//12 114//12
usemtl m197.002
f 35//12 148//12 34//12
usemtl m158.003
f 124//12 123//12 125//12
usemtl m19.006
f 15//30 18//44 19//31
usemtl m58.006
f 20//32 49//46 50//47
usemtl m80.006
f 46//16 63//20 47//48
usemtl m62.006
f 23//6 51//49 52//50
usemtl m39.006
f 32//12 36//12 35//12
usemtl m133.004
f 68//27 103//37 104//28
usemtl m73.006
f 56//1 57//1 58//1
usemtl m98.005
f 77//12 76//12 78//12
usemtl m15.005
f 13//12 10//12 9//12
usemtl m64.006
f 26//24 52//50 27//39
usemtl m135.004
f 68//27 105//29 106//51
usemtl m51.006
f 43//12 42//12 44//12
usemtl m195.002
f 145//52 146//53 147//54
usemtl m194.002
f 144//36 146//53 145//52
usemtl m145.003
f 108//55 113//12 114//12
usemtl m124.004
f 62//19 61//25 98//56
usemtl m175.003
f 55//12 132//12 56//12
usemtl m157.003
f 122//12 123//12 124//12
usemtl m53.006
f 18//44 46//16 19//31
usemtl m57.006
f 20//32 48//35 49//46
usemtl m163.003
f 31//11 127//12 126//4
usemtl m123.005
f 78//12 48//35 47//48
usemtl m148.003
f 115//12 113//12 116//12
usemtl m102.005
f 81//12 79//12 82//12
usemtl m69.006
f 31//11 54//57 55//12
usemtl m1.005
f 1//12 3//12 2//12
usemtl m94.005
f 71//12 73//12 72//12
usemtl m2.005
f 1//12 2//12 4//12
usemtl m23.006
f 21//33 20//32 22//58
usemtl m193.002
f 144//36 129//59 128//3
usemtl m182.003
f 136//2 137//60 138//61
usemtl m141.004
f 106//51 110//62 111//63
usemtl m138.004
f 105//29 108//55 106//51
usemtl m139.004
f 106//51 108//55 109//64
usemtl m159.003
f 112//65 111//63 121//12
usemtl m184.003
f 139//66 137//60 126//4
usemtl m131.004
f 101//67 102//67 61//67
usemtl m9.005
f 7//12 8//12 9//12
usemtl m119.005
f 94//13 96//34 93//14
usemtl m77.006
f 46//16 60//18 61//25
usemtl m121.005
f 95//1 96//1 97//1
usemtl m45.006
f 17//12 3//12 38//12
usemtl m4.005
f 1//12 5//12 6//12
usemtl m110.005
f 73//12 74//12 88//12
usemtl m59.006
f 20//32 50//47 22//58
usemtl m136.004
f 68//27 106//51 107//68
usemtl m88.005
f 67//69 68//27 69//70
usemtl m152.003
f 110//62 119//71 120//72
usemtl m61.006
f 23//6 50//47 51//49
usemtl m104.005
f 83//12 82//12 84//12
usemtl m183.003
f 138//61 137//60 139//66
usemtl m87.005
f 67//69 61//9 68//27
usemtl m25.006
f 21//33 23//6 24//5
usemtl m48.006
f 38//12 40//12 41//12
usemtl m116.005
f 91//12 93//12 94//12
usemtl m36.006
f 32//1 33//1 34//1
usemtl m155.003
f 112//65 121//12 122//12
usemtl m128.004
f 100//8 68//27 61//9
usemtl m84.005
f 64//43 65//42 11//73
usemtl m181.003
f 136//2 126//4 137//60
usemtl m24.006
f 21//33 22//58 23//6
usemtl m65.005
f 27//39 52//50 53//74
usemtl m196.002
f 145//52 147//54 129//59
usemtl m118.005
f 94//13 95//15 96//34
usemtl m180.003
f 55//12 135//12 133//12
usemtl m164.003
f 31//11 126//4 128//3
usemtl m40.006
f 32//12 35//12 34//12
usemtl m142.003
f 106//51 111//63 112//65
usemtl m162.003
f 31//11 57//12 127//12
usemtl m60.006
f 22//58 50//47 23//6
usemtl m105.005
f 83//12 84//12 85//12
usemtl m114.005
f 89//12 91//12 92//12
usemtl m185.003
f 140//21 136//2 141//22
usemtl m33.006
f 29//38 31//11 32//12
usemtl m30.006
f 28//75 27//39 29//38
usemtl m167.003
f 31//1 130//1 129//1
usemtl m126.004
f 98//76 99//76 61//76
usemtl m113.005
f 89//12 90//12 91//12
usemtl m18.005
f 15//30 17//12 18//44
usemtl m3.005
f 1//12 4//12 5//12
usemtl m173.003
f 55//1 132//1 133//1
usemtl m89.005
f 69//70 68//27 70//77
usemtl m52.006
f 43//12 44//12 45//12
usemtl m55.006
f 19//31 47//48 48//35
usemtl m112.005
f 89//12 74//12 90//12
usemtl m168.003
f 130//1 31//1 131//1
usemtl m109.005
f 49//46 76//12 87//12
usemtl m198.002
f 131//12 149//12 36//12
usemtl m32.006
f 29//38 30//40 31//11
usemtl m82.005
f 12//41 11//73 65//42
usemtl m103.005
f 81//12 82//12 83//12
usemtl m140.004
f 106//51 109//64 110//62
usemtl m146.003
f 108//55 114//12 109//64
usemtl m165.003
f 31//11 128//3 129//59
usemtl m187.002
f 140//21 142//23 143//78
usemtl m21.006
f 15//30 20//32 16//26
usemtl m153.003
f 110//62 120//72 111//63
usemtl m149.003
f 115//12 116//12 117//12
usemtl m154.003
f 60//18 102//79 61//25
usemtl m54.006
f 19//31 46//16 47//48
usemtl m50.006
f 41//12 42//12 43//12
usemtl m99.005
f 77//12 78//12 79//12
usemtl m49.006
f 41//12 40//12 42//12
usemtl m28.006
f 25//7 26//24 27//39
usemtl m34.006
f 29//38 32//12 33//12
usemtl m100.005
f 77//12 79//12 80//12
usemtl m29.006
f 25//7 27//39 28//75
usemtl m178.003
f 55//1 135//1 54//1
usemtl m16.005
f 13//12 9//12 14//12
usemtl m71.006
f 31//11 56//12 57//12
usemtl m44.006
f 2//12 3//12 17//12
usemtl m67.006
f 27//39 54//57 30//40
usemtl m143.003
f 106//51 112//65 107//68
usemtl m115.005
f 91//12 90//12 93//12
usemtl m95.005
f 72//12 73//12 75//12
usemtl m111.005
f 88//12 74//12 89//12
usemtl m150.003
f 109//64 118//80 110//62
usemtl m68.006
f 30//40 54//57 31//11
usemtl m97.005
f 72//12 76//12 77//12
usemtl m7.005
f 5//12 7//12 6//12
usemtl m192.002
f 144//36 145//52 129//59
usemtl m66.006
f 27//39 53//74 54//57
usemtl m108.005
f 49//46 78//12 76//12
usemtl m188.002
f 140//21 143//78 144//36
usemtl m14.005
f 13//12 12//45 10//12
usemtl m47.006
f 38//12 39//12 40//12
usemtl m13.005
f 11//12 12//45 13//12
usemtl m8.005
f 7//12 5//12 8//12
usemtl m151.003
f 110//62 118//80 119//71
usemtl m107.005
f 48//35 78//12 49//46
usemtl m63.006
f 23//6 52//50 26//24
usemtl m81.005
f 12//41 64//43 11//73
usemtl m127.004
f 99//81 61//9 67//69
usemtl m137.004
f 68//27 107//68 70//77
