# Blender v2.79 (sub 0) OBJ File: 'NPC_COORDS.blend'
# www.blender.org
mtllib weapon_fish.mtl
o runescapemodel.009
v -0.240967 -0.308557 0.064815
v -0.266538 -0.229353 0.075342
v -0.402458 -0.228764 0.075031
v -0.247366 -0.306781 0.035908
v -0.178150 -0.771370 0.022476
v -0.086974 -0.615327 0.072747
v -0.157010 -0.313291 0.137239
v -0.265705 -0.030750 0.087359
v -0.388007 0.128840 0.093803
v -0.414410 0.009441 0.092312
v -0.505297 -0.044351 0.109125
v 0.027806 -1.073995 -0.041706
v -0.016382 -0.784961 0.016266
v 0.049223 -0.549715 0.077063
v 0.005868 -0.062078 0.147052
v -0.158968 0.747701 0.172424
v -0.249589 0.724060 0.130166
v -0.276270 0.538460 0.124669
v -0.263762 0.432657 0.115400
v -0.272104 -0.028974 0.058452
v -0.170933 0.949856 0.126627
v -0.106450 0.884249 0.108323
v 0.081987 1.020208 0.044531
v 0.108391 1.139607 0.046022
v -0.150928 1.071032 0.099211
v -0.397184 1.029055 0.151142
v -0.255433 0.858238 0.109270
v -0.203723 0.868283 0.159307
v -0.138963 0.868877 0.145008
v -0.132854 0.764850 0.106832
v -0.139253 0.766626 0.077924
v -0.112849 0.886025 0.079415
v 0.210979 -0.599356 0.007774
v 0.116204 -0.019513 0.094811
v 0.144264 -1.099407 -0.069046
v 0.249324 -0.754212 -0.071093
v 0.200125 -0.132397 -0.022000
v 0.060317 0.501827 0.047913
v -0.094497 0.646044 0.091042
v -0.282669 0.540236 0.095761
v -0.347152 0.605843 0.114066
v -0.373278 0.552645 0.116580
v -0.334644 0.500041 0.104797
v -0.270161 0.434433 0.086492
v 0.242925 -0.752436 -0.100001
v 0.137865 -1.097631 -0.097953
v 0.021408 -1.072219 -0.070613
v -0.184549 -0.769594 -0.006431
v 0.193726 -0.130621 -0.050907
v 0.053918 0.503603 0.019005
v 0.138418 0.595221 0.036363
v 0.047531 0.541429 0.053176
v 0.048086 0.673831 0.061187
v -0.068094 0.765443 0.092533
v -0.074493 0.767219 0.063626
v -0.100896 0.647820 0.062135
v 0.054222 -0.918546 0.022863
v 0.080348 -0.865348 0.020348
v 0.015588 -0.865941 0.034647
v 0.015866 -0.799740 0.038653
v -0.396629 1.161457 0.159153
v 0.107003 0.808602 0.025993
v 0.080321 0.623002 0.020496
v 0.081154 0.821605 0.032514
v 0.016116 0.754810 0.042806
v 0.132019 0.596996 0.007455
v 0.069518 -0.326289 0.116730
v 0.075350 -0.496517 0.074548
v 0.139832 -0.562124 0.056244
v 0.147064 -0.365297 0.097168
v 0.056455 -0.352888 0.117988
v 0.265162 -0.065602 -0.032293
v 0.187339 -0.092795 -0.016737
v 0.207066 -0.037821 -0.048159
v 0.200957 0.066206 -0.009982
v 0.226806 0.053203 -0.016503
v 0.143139 0.160189 -0.021843
v 0.181773 0.107584 -0.033627
v 0.246533 0.108178 -0.047925
v 0.259041 0.002375 -0.057194
v 0.285722 0.187975 -0.051697
v 0.298508 0.148373 -0.056961
v 0.258764 -0.063826 -0.061200
vt 0.001001 0.687653
vt 0.273860 0.552725
vt 0.001001 0.552725
vt 0.690656 0.552725
vt 0.825584 0.552725
vt 0.690656 0.687653
vt 0.411791 0.897553
vt 0.276863 0.897553
vt 0.276863 0.963515
vt 0.549722 0.690656
vt 0.276863 0.825584
vt 0.276863 0.690656
vt 0.932036 0.411791
vt 0.932036 0.345829
vt 0.997998 0.345829
vt 0.136930 0.829588
vt 0.002002 0.964516
vt 0.136930 0.964516
vt 0.828587 0.963515
vt 0.894550 0.897553
vt 0.828587 0.897553
vt 0.414794 0.963515
vt 0.549722 0.932036
vt 0.414794 0.932036
vt 0.963515 0.552725
vt 0.897553 0.552725
vt 0.897553 0.618688
vt 0.002002 0.688654
vt 0.274861 0.688654
vt 0.274861 0.553726
vt 0.412792 0.964516
vt 0.412792 0.898554
vt 0.277864 0.964516
vt 0.825584 0.690656
vt 0.690656 0.825584
vt 0.690656 0.690656
vt 0.205896 0.967519
vt 0.139933 0.998999
vt 0.205896 0.998999
vt 0.933037 0.895551
vt 0.964516 0.895551
vt 0.964516 0.829588
vt 0.273860 0.276863
vt 0.001001 0.549722
vt 0.001001 0.276863
vt 0.898554 0.895551
vt 0.930034 0.895551
vt 0.930034 0.760623
vt 0.829588 0.826585
vt 0.861068 0.826585
vt 0.861068 0.553726
vt 0.828587 0.273860
vt 0.894550 0.001001
vt 0.828587 0.001001
vt 0.826585 0.550723
vt 0.691657 0.550723
vt 0.826585 0.277864
vt 0.138932 0.963515
vt 0.273860 0.897553
vt 0.138932 0.897553
vt 0.690656 0.276863
vt 0.825584 0.276863
vt 0.690656 0.549722
vt 0.550723 0.829588
vt 0.550723 0.895551
vt 0.415795 0.895551
vt 0.963515 0.207898
vt 0.932036 0.342826
vt 0.932036 0.207898
vt 0.932036 0.001001
vt 0.963515 0.001001
vt 0.932036 0.135929
vt 0.412792 0.829588
vt 0.412792 0.895551
vt 0.277864 0.895551
vt 0.826585 0.895551
vt 0.826585 0.864071
vt 0.553726 0.895551
vt 0.897553 0.894550
vt 0.897553 0.759622
vt 0.929033 0.759622
vt 0.932036 0.759622
vt 0.932036 0.825584
vt 0.997998 0.759622
vt 0.963515 0.828587
vt 0.932036 0.894550
vt 0.932036 0.828587
vt 0.069967 0.997998
vt 0.135929 0.966518
vt 0.069967 0.966518
vt 0.895551 0.826585
vt 0.864071 0.826585
vt 0.895551 0.553726
vt 0.067965 0.967519
vt 0.002002 0.998999
vt 0.067965 0.998999
vt 0.690656 0.273860
vt 0.690656 0.001001
vt 0.825584 0.001001
vt 0.688654 0.964516
vt 0.688654 0.933037
vt 0.553726 0.964516
vt 0.898554 0.619689
vt 0.964516 0.553726
vt 0.964516 0.619689
vt 0.690656 0.929033
vt 0.825584 0.897553
vt 0.690656 0.897553
vt 0.964516 0.002002
vt 0.964516 0.136930
vt 0.933037 0.136930
vt 0.070968 0.998999
vt 0.136930 0.998999
vt 0.136930 0.967519
vt 0.825584 0.932036
vt 0.690656 0.932036
vt 0.690656 0.963515
vt 0.414794 0.273860
vt 0.549722 0.001001
vt 0.414794 0.001001
vt 0.826585 0.688654
vt 0.691657 0.688654
vt 0.826585 0.553726
vt 0.829588 0.964516
vt 0.895551 0.964516
vt 0.895551 0.898554
vt 0.895551 0.274861
vt 0.895551 0.002002
vt 0.829588 0.274861
vt 0.618688 0.552725
vt 0.552725 0.552725
vt 0.552725 0.825584
vt 0.411791 0.001001
vt 0.276863 0.273860
vt 0.276863 0.001001
vt 0.552725 0.932036
vt 0.552725 0.963515
vt 0.687653 0.932036
vt 0.550723 0.002002
vt 0.415795 0.274861
vt 0.550723 0.274861
vt 0.277864 0.688654
vt 0.550723 0.553726
vt 0.550723 0.688654
vt 0.826585 0.898554
vt 0.826585 0.930034
vt 0.691657 0.930034
vt 0.138932 0.894550
vt 0.273860 0.828587
vt 0.138932 0.828587
vt 0.998999 0.760623
vt 0.933037 0.826585
vt 0.998999 0.826585
vt 0.552725 0.860067
vt 0.552725 0.828587
vt 0.825584 0.828587
vt 0.929033 0.621691
vt 0.897553 0.756619
vt 0.897553 0.621691
vt 0.963515 0.483760
vt 0.897553 0.483760
vt 0.897553 0.549722
vt 0.828587 0.549722
vt 0.828587 0.414794
vt 0.894550 0.414794
vt 0.863070 0.552725
vt 0.894550 0.552725
vt 0.863070 0.825584
vt 0.553726 0.550723
vt 0.688654 0.277864
vt 0.688654 0.550723
vt 0.415795 0.930034
vt 0.688654 0.930034
vt 0.688654 0.898554
vt 0.929033 0.276863
vt 0.897553 0.411791
vt 0.897553 0.276863
vt 0.895551 0.415795
vt 0.829588 0.550723
vt 0.895551 0.550723
vt 0.998999 0.346830
vt 0.933037 0.412792
vt 0.998999 0.412792
vt 0.274861 0.550723
vt 0.274861 0.277864
vt 0.002002 0.550723
vt 0.932036 0.756619
vt 0.963515 0.621691
vt 0.932036 0.621691
vt 0.414794 0.929033
vt 0.687653 0.897553
vt 0.414794 0.897553
vt 0.897553 0.480757
vt 0.897553 0.414794
vt 0.963515 0.414794
vt 0.964516 0.208899
vt 0.933037 0.343827
vt 0.964516 0.343827
vt 0.274861 0.691657
vt 0.002002 0.826585
vt 0.274861 0.826585
vt 0.826585 0.861068
vt 0.553726 0.861068
vt 0.826585 0.829588
vt 0.930034 0.274861
vt 0.898554 0.274861
vt 0.930034 0.002002
vt 0.895551 0.412792
vt 0.895551 0.277864
vt 0.829588 0.412792
vt 0.898554 0.550723
vt 0.964516 0.550723
vt 0.964516 0.484761
vt 0.828587 0.825584
vt 0.860067 0.552725
vt 0.828587 0.552725
vt 0.688654 0.274861
vt 0.553726 0.274861
vt 0.688654 0.002002
vt 0.550723 0.933037
vt 0.550723 0.964516
vt 0.415795 0.964516
vt 0.550723 0.691657
vt 0.550723 0.826585
vt 0.277864 0.826585
vt 0.274861 0.898554
vt 0.139933 0.964516
vt 0.274861 0.964516
vt 0.826585 0.274861
vt 0.691657 0.274861
vt 0.826585 0.002002
vt 0.894550 0.276863
vt 0.828587 0.276863
vt 0.828587 0.411791
vt 0.687653 0.552725
vt 0.621691 0.825584
vt 0.621691 0.552725
vt 0.895551 0.829588
vt 0.829588 0.895551
vt 0.895551 0.895551
vt 0.553726 0.826585
vt 0.619689 0.826585
vt 0.619689 0.553726
vt 0.898554 0.757620
vt 0.930034 0.622692
vt 0.930034 0.757620
vt 0.414794 0.828587
vt 0.549722 0.828587
vt 0.414794 0.894550
vt 0.964516 0.415795
vt 0.898554 0.481758
vt 0.964516 0.481758
vt 0.552725 0.894550
vt 0.825584 0.863070
vt 0.552725 0.863070
vt 0.001001 0.828587
vt 0.001001 0.963515
vt 0.135929 0.828587
vt 0.549722 0.552725
vt 0.276863 0.552725
vt 0.276863 0.687653
vt 0.826585 0.964516
vt 0.826585 0.933037
vt 0.691657 0.964516
vt 0.138932 0.997998
vt 0.204895 0.966518
vt 0.138932 0.966518
vt 0.552725 0.276863
vt 0.552725 0.549722
vt 0.687653 0.276863
vt 0.277864 0.412792
vt 0.550723 0.412792
vt 0.550723 0.277864
vt 0.894550 0.828587
vt 0.828587 0.894550
vt 0.828587 0.828587
vt 0.963515 0.897553
vt 0.897553 0.963515
vt 0.897553 0.897553
vt 0.998999 0.205896
vt 0.933037 0.205896
vt 0.998999 0.139933
vt 0.273860 0.690656
vt 0.001001 0.690656
vt 0.001001 0.825584
vt 0.622692 0.826585
vt 0.688654 0.553726
vt 0.688654 0.826585
vt 0.002002 0.274861
vt 0.274861 0.274861
vt 0.274861 0.002002
vt 0.549722 0.414794
vt 0.276863 0.414794
vt 0.276863 0.549722
vt 0.277864 0.274861
vt 0.412792 0.274861
vt 0.412792 0.002002
vt 0.930034 0.277864
vt 0.898554 0.412792
vt 0.930034 0.412792
vt 0.929033 0.001001
vt 0.897553 0.273860
vt 0.897553 0.001001
vt 0.001001 0.273860
vt 0.273860 0.001001
vt 0.001001 0.001001
vt 0.997998 0.138932
vt 0.932036 0.138932
vt 0.932036 0.204895
vt 0.276863 0.276863
vt 0.276863 0.411791
vt 0.549722 0.276863
vt 0.276863 0.828587
vt 0.276863 0.894550
vt 0.411791 0.828587
vt 0.826585 0.826585
vt 0.826585 0.691657
vt 0.691657 0.826585
vt 0.139933 0.895551
vt 0.274861 0.895551
vt 0.274861 0.829588
vt 0.277864 0.550723
vt 0.550723 0.415795
vt 0.550723 0.550723
vt 0.552725 0.001001
vt 0.552725 0.273860
vt 0.687653 0.001001
vt 0.933037 0.757620
vt 0.964516 0.757620
vt 0.964516 0.622692
vt 0.001001 0.966518
vt 0.001001 0.997998
vt 0.066964 0.966518
vt 0.964516 0.898554
vt 0.964516 0.964516
vt 0.898554 0.964516
vn 0.1472 0.1489 0.9778
vn 0.2783 -0.0016 0.9605
vn 0.1651 0.1594 0.9733
vn -0.5540 0.0563 0.8306
vn -0.4434 0.0146 0.8962
vn -0.2772 0.1195 0.9533
vn 0.2166 -0.0558 0.9747
vn -0.1351 0.0500 0.9896
vn 0.7713 -0.1882 0.6079
vn 0.6949 -0.0702 0.7157
vn 0.6555 0.0784 0.7511
vn 0.2385 -0.0196 0.9709
vn 0.4843 0.0967 0.8696
vn 0.7349 0.3556 0.5775
vn 0.2413 -0.0124 0.9704
vn 0.4963 0.0197 0.8679
vn 0.3244 0.1071 0.9398
vn 0.8063 -0.1466 0.5730
vn 0.2152 -0.0428 0.9756
vn 0.2746 0.0891 0.9574
vn 0.2331 0.3705 0.8991
vn -0.2834 0.6372 0.7167
vn 0.3513 -0.1105 0.9297
vn 0.2426 0.0163 0.9700
vn 0.1679 -0.0424 0.9849
vn -0.5520 0.8158 0.1723
vn -0.3319 0.9342 0.1309
vn 0.0965 0.2530 0.9626
vn -0.2874 -0.1879 0.9392
vn -0.9198 -0.2305 0.3177
vn -0.3691 0.0947 0.9246
vn -0.3048 0.9441 0.1255
vn 0.1682 0.0634 0.9837
vn 0.9704 -0.0975 -0.2208
vn 0.9610 -0.1476 0.2341
vn 0.5133 -0.7616 0.3957
vn 0.9945 0.0120 0.1043
vn 0.2902 0.0485 0.9557
vn 0.2171 -0.1743 0.9605
vn -0.2563 -0.1207 0.9590
vn 0.1223 -0.0233 0.9922
vn -0.0312 -0.2293 0.9729
vn 0.9776 0.1277 0.1676
vn -0.6824 -0.4200 0.5983
vn 0.2157 -0.0599 0.9746
vn 0.3833 0.1403 0.9129
vn 0.4581 -0.0212 0.8886
vn 0.7509 0.6009 0.2741
vn 0.8511 -0.2032 0.4840
vn 0.5069 0.2096 0.8362
vn -0.5474 -0.8339 0.0699
vn -0.3016 -0.7144 0.6315
vn -0.9102 -0.3738 0.1785
vn 0.6875 -0.6995 -0.1952
vn 0.6862 -0.6062 0.4020
vn -0.7946 -0.5909 0.1396
vn -0.6586 -0.3674 0.6567
vn -0.2458 -0.2806 0.9278
vn -0.9037 -0.3903 0.1761
vn 0.7862 -0.0805 0.6127
vn -0.0461 0.9964 0.0714
vn 0.9754 0.0604 -0.2122
vn 0.8031 -0.5568 -0.2120
vn -0.0960 -0.2105 0.9729
vn 0.2377 -0.1900 0.9526
vn -0.3591 0.2210 0.9068
vn 0.4873 -0.8583 -0.1606
vn 0.2475 -0.2114 0.9455
vn 0.0756 -0.2265 0.9711
vn 0.1404 -0.2065 0.9683
vn -0.0933 -0.0717 0.9931
vn 0.9471 -0.2302 -0.2238
vn 0.9339 -0.2789 -0.2239
vn 0.7352 0.6589 0.1589
vn 0.3258 0.0917 0.9410
vn 0.8617 -0.4578 -0.2189
vn 0.9733 0.0936 -0.2097
vn 0.0508 -0.2386 0.9698
vn 0.4803 -0.1954 0.8551
vn 0.9527 0.2317 -0.1967
vn 0.1077 -0.0040 0.9942
usemtl m25.009
s 1
f 21/1/1 24/2/2 25/3/3
usemtl m48.009
f 17/4/4 27/5/5 18/6/6
usemtl m102.007
f 82/7/7 80/8/8 72/9/9
usemtl m36.009
f 33/10/10 34/11/11 15/12/12
usemtl m107.007
f 80/13/8 74/14/13 72/15/9
usemtl m70.008
f 39/16/14 52/17/15 53/18/16
usemtl m93.007
f 73/19/17 72/20/9 74/21/13
usemtl m79.008
f 51/22/18 62/23/19 63/24/20
usemtl m84.007
f 53/25/16 65/26/21 54/27/22
usemtl m24.009
f 21/28/1 23/29/23 24/30/2
usemtl m82.007
f 53/31/16 63/32/20 64/33/24
usemtl m27.009
f 21/34/1 26/35/25 27/36/5
usemtl m85.007
f 54/37/22 65/38/21 55/39/26
usemtl m50.009
f 18/40/6 40/41/27 41/42/28
usemtl m20.008
f 7/43/29 19/44/30 8/45/31
usemtl m22.009
f 8/46/31 20/47/32 9/48/33
usemtl m56.008
f 45/49/34 36/50/35 35/51/36
usemtl m46.009
f 15/52/12 30/53/37 16/54/38
usemtl m38.009
f 33/55/10 14/56/39 35/57/36
usemtl m10.008
f 2/58/40 11/59/41 3/60/42
usemtl m40.009
f 33/61/10 36/62/35 37/63/43
usemtl m0.008
f 1/64/44 2/65/40 3/66/42
usemtl m101.007
f 81/67/45 80/68/8 82/69/7
usemtl m96.007
f 75/70/46 76/71/47 77/72/48
usemtl m31.009
f 22/73/49 29/74/50 16/75/38
usemtl m60.008
f 47/76/51 12/77/52 48/78/53
usemtl m91.007
f 63/79/20 62/80/19 64/81/24
usemtl m106.007
f 80/82/8 76/83/47 74/84/13
usemtl m105.007
f 49/85/54 72/86/9 37/87/55
usemtl m92.007
f 37/88/55 72/89/9 73/90/17
usemtl m2.008
f 1/91/44 4/92/56 5/93/57
usemtl m54.009
f 19/94/30 43/95/58 44/96/59
usemtl m43.009
f 34/97/11 38/98/60 39/99/14
usemtl m74.008
f 39/100/14 56/101/61 30/102/37
usemtl m83.007
f 53/103/16 64/104/24 65/105/21
usemtl m75.008
f 30/106/37 56/107/61 31/108/62
usemtl m33.009
f 22/109/49 30/110/37 31/111/62
usemtl m30.009
f 21/112/1 29/113/50 22/114/49
usemtl m72.007
f 39/115/14 54/116/22 55/117/26
usemtl m17.008
f 7/118/29 16/119/38 17/120/4
usemtl m6.008
f 2/121/40 7/122/29 8/123/31
usemtl m76.008
f 57/124/45 58/125/45 59/126/45
usemtl m45.009
f 34/127/11 30/128/37 15/129/12
usemtl m35.009
f 22/130/49 32/131/63 23/132/23
usemtl m12.008
f 6/133/64 12/134/52 13/135/65
usemtl m108.007
f 29/136/50 28/137/66 16/138/38
usemtl m3.008
f 1/139/44 5/140/57 6/141/64
usemtl m19.009
f 7/142/29 18/143/6 19/144/30
usemtl m58.008
f 46/145/67 35/146/36 12/147/52
usemtl m89.007
f 67/148/68 69/149/69 70/150/70
usemtl m52.009
f 18/151/6 42/152/71 43/153/58
usemtl m55.008
f 19/154/30 44/155/59 20/156/32
usemtl m86.007
f 51/157/18 50/158/72 66/159/73
usemtl m80.008
f 51/160/18 63/161/20 52/162/15
usemtl m109.007
f 16/163/38 28/164/66 27/165/5
usemtl m62.008
f 48/166/53 5/167/57 4/168/56
usemtl m39.009
f 33/169/10 35/170/36 36/171/35
usemtl m63.008
f 37/172/43 36/173/35 45/174/34
usemtl m73.008
f 39/175/14 55/176/26 56/177/61
usemtl m32.009
f 22/178/49 16/179/38 30/180/37
usemtl m98.007
f 78/181/74 76/182/47 79/183/75
usemtl m15.008
f 7/184/29 14/185/39 15/186/12
usemtl m103.007
f 82/187/7 72/188/9 83/189/76
usemtl m64.008
f 37/190/43 45/191/34 49/192/77
usemtl m51.009
f 18/193/6 41/194/28 42/195/71
usemtl m90.007
f 68/196/78 67/197/68 71/198/79
usemtl m37.009
f 33/199/10 15/200/12 14/201/39
usemtl m21.009
f 8/202/31 19/203/30 20/204/32
usemtl m65.007
f 37/205/43 49/206/80 38/207/60
usemtl m5.008
f 1/208/44 7/209/29 2/210/40
usemtl m53.009
f 18/211/6 43/212/58 19/213/30
usemtl m57.008
f 45/214/34 35/215/36 46/216/67
usemtl m26.009
f 21/217/1 25/218/3 26/219/25
usemtl m69.008
f 38/220/60 52/221/15 39/222/14
usemtl m11.008
f 6/223/64 5/224/57 12/225/52
usemtl m1.008
f 1/226/44 3/227/42 4/228/56
usemtl m42.009
f 34/229/11 37/230/43 38/231/60
usemtl m94.007
f 73/232/17 74/233/13 75/234/46
usemtl m49.009
f 18/235/6 27/236/5 40/237/27
usemtl m28.009
f 21/238/1 27/239/5 28/240/66
usemtl m23.009
f 21/241/1 22/242/49 23/243/23
usemtl m34.009
f 22/244/49 31/245/62 32/246/63
usemtl m100.007
f 79/247/75 80/248/8 81/249/45
usemtl m29.009
f 21/250/1 28/251/66 29/252/50
usemtl m61.008
f 48/253/53 12/254/52 5/255/57
usemtl m71.008
f 39/256/14 53/257/16 54/258/22
usemtl m44.009
f 34/259/11 39/260/14 30/261/37
usemtl m67.008
f 38/262/60 50/263/72 51/264/18
usemtl m95.007
f 75/265/46 74/266/13 76/267/47
usemtl m111.007
f 13/268/65 35/269/36 14/270/39
usemtl m9.008
f 2/271/40 10/272/81 11/273/41
usemtl m68.008
f 38/274/60 51/275/18 52/276/15
usemtl m97.007
f 77/277/48 76/278/47 78/279/74
usemtl m77.008
f 59/280/45 58/281/45 60/282/45
usemtl m41.009
f 33/283/10 37/284/43 34/285/11
usemtl m4.008
f 1/286/44 6/287/64 7/288/29
usemtl m16.008
f 7/289/29 15/290/12 16/291/38
usemtl m110.007
f 13/292/65 12/293/52 35/294/36
usemtl m7.008
f 2/295/40 8/296/31 9/297/33
usemtl m59.008
f 46/298/67 12/299/52 47/300/51
usemtl m66.008
f 38/301/60 49/302/80 50/303/72
usemtl m18.008
f 7/304/29 17/305/4 18/306/6
usemtl m99.007
f 79/307/75 76/308/47 80/309/8
usemtl m14.008
f 6/310/64 14/311/39 7/312/29
usemtl m47.009
f 17/313/4 16/314/38 27/315/5
usemtl m13.008
f 6/316/64 13/317/65 14/318/39
usemtl m88.007
f 67/319/68 68/320/78 69/321/69
usemtl m8.008
f 2/322/40 9/323/33 10/324/81
usemtl m78.008
f 26/325/25 25/326/3 61/327/45
usemtl m87.007
f 51/328/18 66/329/73 62/330/19
usemtl m104.007
f 83/331/76 72/332/9 49/333/54
usemtl m81.007
f 52/334/15 63/335/20 53/336/16
