# Blender v2.79 (sub 0) OBJ File: 'NPC_COORDS.blend'
# www.blender.org
mtllib weapon_cattleprod.mtl
o runescapemodel.007
v 0.062773 0.007806 0.839320
v 0.215316 0.007807 0.847270
v 0.114185 0.007806 0.716035
v -0.089347 0.007806 0.736920
v -0.053410 0.007806 0.824268
v 0.062350 0.007806 0.933772
v 0.062350 -0.096979 0.933772
v 0.062773 -0.096979 0.839320
v 0.156801 0.007807 0.934195
v 0.272985 0.007807 0.949247
v 0.272985 -0.096979 0.949247
v 0.215316 -0.096979 0.847270
v 0.114185 -0.096979 0.716035
v 0.049414 -0.096979 0.577697
v 0.049414 0.007806 0.577697
v -0.045037 0.007806 0.577274
v -0.089347 -0.096979 0.736920
v -0.205953 0.007806 0.816319
v -0.162914 0.007806 0.940028
v -0.162914 -0.096979 0.940028
v -0.053410 -0.096979 0.824268
v -0.032102 0.007806 0.933349
v 0.010515 0.007807 1.151510
v 0.010515 -0.096979 1.151510
v 0.163058 0.007807 1.159459
v 0.163058 -0.096979 1.159459
v -0.257365 0.007806 0.939605
v -0.142029 0.007806 1.143560
v -0.205953 -0.096979 0.816319
v -0.257365 -0.096979 0.939605
v -0.142029 -0.096979 1.143560
v 0.156801 -0.096979 0.934195
v -0.032102 -0.096979 0.933349
v 0.103366 -0.096979 -0.112299
v 0.103366 0.007806 -0.112299
v -0.085538 0.007806 -0.113145
v -0.045037 -0.096979 0.577274
v -0.085538 -0.096979 -0.113145
vn 0.7259 0.6822 0.0869
vn -0.6940 0.7071 0.1356
vn -0.0172 0.5399 0.8415
vn 0.6286 0.7693 -0.1143
vn 0.6026 0.5736 -0.5548
vn -0.6623 0.7459 -0.0705
vn -0.0204 0.0000 0.9998
vn 0.5813 0.7325 -0.3542
vn -0.4948 0.7933 -0.3547
vn 0.2556 0.5397 0.8021
vn -0.9982 0.0000 0.0598
vn 0.3036 0.0000 0.9528
vn -0.9944 -0.0000 -0.1059
vn -0.8128 0.0000 -0.5825
vn 0.7894 0.6137 -0.0130
vn -0.1893 0.5412 0.8193
vn -0.2251 0.0000 0.9743
vn -0.7260 -0.0000 -0.6877
vn 0.7357 -0.0000 -0.6773
vn -0.5517 0.8000 0.2361
vn 0.3785 0.0000 0.9256
vn -0.9194 0.0000 0.3934
vn 0.5500 0.8140 0.1870
vn -0.0725 0.9655 0.2500
vn 0.9468 0.0000 0.3219
vn 0.9929 0.0000 0.1188
vn 0.0809 0.9769 0.1977
vn 0.6020 0.6915 -0.3993
vn -0.5901 0.6482 -0.4812
vn -0.2786 0.0000 0.9604
vn 0.9839 0.0000 -0.1790
vn 0.9999 0.0000 -0.0164
vn 0.8334 0.0000 -0.5527
vn -0.5944 0.5741 -0.5631
vn -0.7830 0.6203 0.0469
vn -0.7750 0.0000 -0.6319
vn -0.9814 0.0000 0.1917
vn 0.8540 0.0000 -0.5203
usemtl m25.007
s 1
f 6//1 22//2 23//3
usemtl m48.007
f 15//4 35//5 16//6
usemtl m26.007
f 6//1 23//3 24//7
usemtl m15.006
f 3//8 15//4 4//9
usemtl m36.007
f 28//10 30//11 31//12
usemtl m51.007
f 16//6 37//13 17//14
usemtl m29.007
f 10//15 25//16 26//17
usemtl m54.007
f 38//18 35//5 34//19
usemtl m40.007
f 9//20 8//21 32//22
usemtl m37.007
f 28//10 31//12 19//23
usemtl m24.007
f 5//24 22//2 6//1
usemtl m21.007
f 5//24 19//23 20//25
usemtl m27.007
f 6//1 24//7 7//26
usemtl m5.006
f 1//27 7//26 8//21
usemtl m0.006
f 1//27 2//28 3//8
usemtl m20.006
f 5//24 18//29 19//23
usemtl m22.007
f 5//24 20//25 21//30
usemtl m46.007
f 15//4 14//31 34//19
usemtl m4.006
f 1//27 6//1 7//26
usemtl m38.007
f 19//23 31//12 20//25
usemtl m10.006
f 2//28 11//32 12//33
usemtl m11.006
f 2//28 12//33 3//8
usemtl m1.006
f 1//27 3//8 4//9
usemtl m42.007
f 25//16 32//22 26//17
usemtl m49.007
f 16//6 35//5 36//34
usemtl m28.007
f 9//20 25//16 10//15
usemtl m23.007
f 5//24 21//30 22//2
usemtl m34.007
f 27//35 29//36 30//11
usemtl m53.007
f 38//18 36//34 35//5
usemtl m31.007
f 27//35 28//10 19//23
usemtl m44.007
f 33//37 23//3 22//2
usemtl m50.007
f 16//6 36//34 37//13
usemtl m2.006
f 1//27 4//9 5//24
usemtl m32.007
f 27//35 19//23 18//29
usemtl m43.007
f 33//37 24//7 23//3
usemtl m9.006
f 2//28 10//15 11//32
usemtl m33.007
f 27//35 18//29 29//36
usemtl m30.007
f 10//15 26//17 11//32
usemtl m17.006
f 4//9 16//6 17//14
usemtl m41.007
f 9//20 32//22 25//16
usemtl m6.006
f 1//27 8//21 9//20
usemtl m7.006
f 1//27 9//20 2//28
usemtl m45.007
f 33//37 22//2 21//30
usemtl m35.007
f 27//35 30//11 28//10
usemtl m12.006
f 3//8 12//33 13//38
usemtl m18.006
f 4//9 17//14 18//29
usemtl m14.006
f 3//8 14//31 15//4
usemtl m47.007
f 15//4 34//19 35//5
usemtl m3.006
f 1//27 5//24 6//1
usemtl m19.007
f 4//9 18//29 5//24
usemtl m13.006
f 3//8 13//38 14//31
usemtl m8.006
f 2//28 9//20 10//15
usemtl m52.007
f 37//13 36//34 38//18
usemtl m16.006
f 4//9 15//4 16//6
usemtl m39.007
f 17//14 29//36 18//29
